SplineFontDB: 3.0
FontName: Nika-Regular
FullName: Nika Regular
FamilyName: Nika
Weight: Regular
Copyright: Copyright (c) 2016 Copyright Holder (info@font-store.ir), with Reserved Font Name "Farbod"
UComments: "2015-5-13: Created with FontForge (http://fontforge.org)"
Version: Version:0.0.5;RFB:1.2.5;Building:2016-03-23 05:25:14.000842
FONDName: RITA
ItalicAngle: 0
UnderlinePosition: 500
UnderlineWidth: 59
Ascent: 800
Descent: 500
InvalidEm: 0
sfntRevision: 0x00010000
LayerCount: 2
Layer: 0 0 "Back" 1
Layer: 1 0 "Fore" 0
PreferredKerning: 4
XUID: [1021 828 -1901974348 32649]
StyleMap: 0x0040
FSType: 8
OS2Version: 3
OS2_WeightWidthSlopeOnly: 0
OS2_UseTypoMetrics: 0
CreationTime: 1431477301
ModificationTime: 1458694514
PfmFamily: 17
TTFWeight: 400
TTFWidth: 5
LineGap: 0
VLineGap: 0
Panose: 2 0 5 3 0 0 0 0 0 0
OS2TypoAscent: 800
OS2TypoAOffset: 0
OS2TypoDescent: -500
OS2TypoDOffset: 0
OS2TypoLinegap: 0
OS2WinAscent: 1100
OS2WinAOffset: 0
OS2WinDescent: 700
OS2WinDOffset: 0
HheadAscent: 1100
HheadAOffset: 0
HheadDescent: -700
HheadDOffset: 0
OS2SubXSize: 780
OS2SubYSize: 839
OS2SubXOff: -107
OS2SubYOff: 168
OS2SupXSize: 780
OS2SupYSize: 839
OS2SupXOff: 369
OS2SupYOff: 575
OS2StrikeYSize: 59
OS2StrikeYPos: 310
OS2Vendor: 'RITA'
OS2CodePages: 00000040.00000000
OS2UnicodeRanges: 80002003.80002000.00000008.00000000
MacStyle: 0
Lookup: 4 1 1 "'ccmp' Glyph Composition/Decomposition in Arabic lookup 5" { "'ccmp' Glyph Composition/Decomposition in Arabic lookup 5-1"  } ['ccmp' ('DFLT' <'dflt' > 'arab' <'dflt' > ) ]
Lookup: 1 9 0 "'isol' Isolated Forms in Latin lookup 1" { "'isol' Isolated Forms in Latin lookup 1-1"  } ['isol' ('DFLT' <'dflt' > 'arab' <'dflt' > ) ]
Lookup: 1 9 0 "'fina' Terminal Forms in Arabic lookup 3" { "'fina' Terminal Forms in Arabic lookup 3-1"  } ['fina' ('DFLT' <'dflt' > 'arab' <'dflt' > ) ]
Lookup: 1 9 0 "'medi' Medial Forms in Arabic lookup 2" { "'medi' Medial Forms in Arabic lookup 2-1"  } ['medi' ('DFLT' <'dflt' > 'arab' <'dflt' > ) ]

StartChar: _.alef.isol
Encoding: 65536 -1 0
GlifName: _.alef.isol
Width: 227
VWidth: 1304
GlyphClass: 2
Flags: HMW
LayerCount: 2
Fore
SplineSet
64 709 m 0
 64 751 75 758 150 800 c 0
 157 800 163 798 163 789 c 2
 163 -0 l 1
 146 -13 125 -25 112 -25 c 0
 104 -25 99 -21 99 -10 c 2
 64 700 l 2
 64 703 64 706 64 709 c 0
EndSplineSet
Colour: ffda6b
EndChar

StartChar: _.alef.fina
Encoding: 65537 -1 1
GlifName: _.alef.fina
Width: 316
VWidth: 1304
GlyphClass: 2
Flags: HMW
LayerCount: 2
Fore
SplineSet
64 709 m 0
 64 751 75 758 150 800 c 0
 157 800 163 798 163 789 c 2
 163 160 l 2
 163 142 169 125 195 119 c 0
 227 109 267 100 316 100 c 1
 316 -0 l 1
 248 0 204 10 172 27 c 0
 149 38 131 51 117 68 c 0
 97 90 92 124 90 160 c 2
 64 700 l 2
 64 703 64 706 64 709 c 0
EndSplineSet
Colour: ffda6b
EndChar

StartChar: _.beh.isol
Encoding: 65540 -1 4
GlifName: _.beh.isol
Width: 929
VWidth: 1304
GlyphClass: 2
UnlinkRmOvrlpSave: 1
Flags: HMW
LayerCount: 2
Fore
SplineSet
64 214 m 0
 64 267 77 331 106 412 c 1
 165 388 l 1
 148 335 138 289 138 250 c 0
 138 153 206 101 419 101 c 0
 421 101 422 101 424 101 c 0
 532 101 674 126 786 160 c 1
 787 166 787 172 787 178 c 0
 787 224 766 288 743 364 c 1
 819 429 l 1
 847 345 865 274 865 216 c 0
 865 141 836 87 764 56 c 0
 760 55 757 53 753 52 c 0
 659 24 515 1 423 -0 c 0
 229 0 64 28 64 214 c 0
EndSplineSet
Colour: ffda6b
EndChar

StartChar: _.beh.fina
Encoding: 65541 -1 5
GlifName: _.beh.fina
Width: 993
VWidth: 1304
GlyphClass: 2
UnlinkRmOvrlpSave: 1
Flags: HMW
LayerCount: 2
Fore
SplineSet
64 214 m 0
 64 267 77 331 106 412 c 1
 165 388 l 1
 148 335 138 289 138 250 c 0
 138 153 206 101 419 101 c 0
 421 101 422 101 424 101 c 0
 524 101 652 121 759 151 c 1
 777 311 l 1
 856 300 l 1
 839 160 l 1
 840 142 845 125 871 119 c 0
 904 109 944 100 993 100 c 1
 993 -0 l 1
 925 0 882 10 850 27 c 0
 824 38 805 53 790 71 c 1
 782 67 774 58 766 56 c 0
 756 52 747 51 737 47 c 1
 645 22 510 1 423 -0 c 0
 229 0 64 28 64 214 c 0
EndSplineSet
Colour: ffda6b
EndChar

StartChar: _.beh.medi
Encoding: 65542 -1 6
GlifName: _.beh.medi
Width: 418
VWidth: 1304
GlyphClass: 2
UnlinkRmOvrlpSave: 1
Flags: HMW
LayerCount: 2
Fore
SplineSet
218 68 m 1
 175 21 128 0 25 -0 c 2
 -1 -0 l 2
 -25 0 -50 24 -50 49 c 0
 -50 76 -27 100 -1 100 c 2
 25 100 l 2
 80 100 135 109 184 135 c 1
 184 315 l 1
 264 315 l 1
 264 160 l 2
 264 142 270 125 296 119 c 0
 328 109 369 100 418 100 c 1
 418 -0 l 1
 350 0 306 10 274 27 c 0
 251 38 232 51 218 68 c 1
EndSplineSet
Colour: ffda6b
EndChar

StartChar: _.beh.init
Encoding: 65543 -1 7
GlifName: _.beh.init
Width: 329
VWidth: 1197
GlyphClass: 1
UnlinkRmOvrlpSave: 1
Flags: HMW
LayerCount: 2
Fore
SplineSet
-50 49 m 0
 -50 76 -27 100 -1 100 c 2
 24 100 l 2
 98 100 149 116 186 136 c 1
 186 140 187 145 187 150 c 0
 187 196 165 261 143 335 c 1
 220 400 l 1
 248 316 265 245 265 187 c 0
 265 117 240 66 179 34 c 0
 147 13 101 0 25 -0 c 2
 -1 -0 l 2
 -25 0 -50 24 -50 49 c 0
EndSplineSet
Colour: ffda6b
EndChar

StartChar: _.heh.isol
Encoding: 65544 -1 8
GlifName: _.heh.isol
Width: 785
VWidth: 1304
GlyphClass: 1
UnlinkRmOvrlpSave: 1
Flags: HMW
LayerCount: 2
Fore
SplineSet
64 246 m 1
 110 380 169 421 244 421 c 0
 361 421 517 321 721 320 c 1
 682 220 l 1
 673 220 664 220 654 221 c 1
 654 220 l 1
 415 220 193 74 160 -74 c 0
 158 -85 156 -96 156 -107 c 0
 156 -203 252 -300 489 -300 c 0
 538 -300 593 -296 654 -287 c 1
 633 -387 l 1
 570 -396 512 -400 460 -400 c 0
 217 -400 94 -308 94 -138 c 0
 94 -119 95 -100 98 -79 c 0
 120 67 234 209 421 278 c 1
 356 299 297 318 245 318 c 0
 186 318 138 294 106 218 c 1
 64 246 l 1
EndSplineSet
Colour: ffda6b
EndChar

StartChar: _.heh.fina
Encoding: 65545 -1 9
GlifName: _.heh.fina
Width: 789
VWidth: 1304
GlyphClass: 1
UnlinkRmOvrlpSave: 1
Flags: HMW
LayerCount: 2
Fore
SplineSet
64 246 m 1
 110 380 169 421 244 421 c 0
 361 421 517 321 721 320 c 1
 682 220 l 1
 673 220 664 220 654 221 c 1
 654 220 l 1
 632 220 609 218 587 216 c 1
 599 136 647 100 748 100 c 2
 789 100 l 1
 789 -0 l 1
 748 -0 l 2
 581 0 524 92 512 203 c 1
 332 161 186 44 160 -74 c 0
 158 -85 156 -96 156 -107 c 0
 156 -203 252 -300 489 -300 c 0
 538 -300 593 -296 654 -287 c 1
 633 -387 l 1
 570 -396 512 -400 460 -400 c 0
 217 -400 94 -308 94 -138 c 0
 94 -119 95 -100 98 -79 c 0
 120 67 234 209 421 278 c 1
 356 299 297 318 245 318 c 0
 186 318 138 294 106 218 c 1
 64 246 l 1
EndSplineSet
Colour: ffda6b
EndChar

StartChar: _.heh.medi
Encoding: 65546 -1 10
GlifName: _.heh.medi
Width: 780
VWidth: 1304
GlyphClass: 1
UnlinkRmOvrlpSave: 1
Flags: HMW
LayerCount: 2
Fore
SplineSet
-50 50 m 0
 -50 75 -26 100 -1 100 c 2
 68 100 l 2
 292 100 374 198 482 263 c 1
 388 297 301 340 231 340 c 0
 178 340 135 315 106 246 c 1
 64 274 l 1
 107 400 162 441 231 441 c 0
 350 441 511 321 722 320 c 1
 682 220 l 1
 642 220 l 2
 620 220 599 216 579 210 c 1
 593 135 641 100 739 100 c 2
 780 100 l 1
 780 -0 l 1
 739 -0 l 2
 586 0 524 78 506 175 c 1
 404 111 305 0 72 -0 c 2
 -1 -0 l 1
 -26 1 -50 24 -50 50 c 0
EndSplineSet
Colour: ffda6b
EndChar

StartChar: _.heh.init
Encoding: 65547 -1 11
GlifName: _.heh.init
Width: 786
VWidth: 1304
GlyphClass: 1
UnlinkRmOvrlpSave: 1
Flags: HMW
LayerCount: 2
Fore
SplineSet
-50 50 m 0
 -50 75 -26 100 -1 100 c 2
 68 100 l 2
 292 100 374 198 482 263 c 1
 388 297 301 340 231 340 c 0
 178 340 135 315 106 246 c 1
 64 274 l 1
 107 400 162 441 231 441 c 0
 350 441 511 321 722 320 c 1
 682 220 l 1
 642 220 l 1
 463 219 398 0 72 -0 c 2
 -1 -0 l 1
 -26 1 -50 24 -50 50 c 0
EndSplineSet
Colour: ffda6b
EndChar

StartChar: _.sin.isol
Encoding: 65548 -1 12
GlifName: _.sin.isol
Width: 1340
VWidth: 1304
GlyphClass: 1
UnlinkRmOvrlpSave: 1
Flags: HMW
LayerCount: 2
Fore
SplineSet
627 -44 m 0
 627 31 578 177 562 228 c 1
 637 293 l 1
 654 246 672 183 684 123 c 1
 715 100 762 80 806 80 c 0
 852 80 895 102 913 166 c 2
 950 299 l 1
 1020 287 l 1
 982 141 l 1
 1012 115 1055 85 1096 81 c 0
 1124 81 1186 120 1196 140 c 1
 1196 171 1180 225 1144 333 c 1
 1220 399 l 1
 1241 346 1276 246 1276 164 c 0
 1276 51 1157 -18 1094 -22 c 1
 1026 -18 985 16 941 55 c 1
 904 8 851 -16 794 -16 c 0
 763 -16 732 -9 701 5 c 1
 701 -1 702 -6 702 -12 c 0
 702 -168 501 -300 317 -301 c 0
 185 -301 64 -240 64 -56 c 0
 64 20 84 115 133 237 c 1
 192 214 l 1
 152 121 135 43 135 -19 c 0
 135 -140 204 -201 316 -201 c 0
 422 -201 556 -140 625 -65 c 1
 627 -59 627 -52 627 -44 c 0
EndSplineSet
Colour: ffda6b
EndChar

StartChar: _.sin.fina
Encoding: 65549 -1 13
GlifName: _.sin.fina
Width: 1478
VWidth: 1304
GlyphClass: 1
UnlinkRmOvrlpSave: 1
Flags: HMW
LayerCount: 2
Fore
SplineSet
627 -44 m 0
 627 31 578 177 562 228 c 1
 637 293 l 1
 654 246 672 183 684 123 c 1
 715 100 762 80 806 80 c 0
 852 80 895 102 913 166 c 2
 950 299 l 1
 1020 287 l 1
 983 149 l 1
 1013 121 1062 84 1106 80 c 0
 1134 80 1195 118 1205 138 c 1
 1156 300 l 1
 1235 331 l 1
 1270 220 l 1
 1304 113 1360 100 1478 100 c 1
 1478 -0 l 1
 1469 0 1460 0 1451 -0 c 0
 1383 0 1308 6 1254 65 c 1
 1213 11 1144 -21 1103 -22 c 0
 1034 -20 992 17 948 58 c 1
 948 69 l 1
 911 13 854 -15 793 -15 c 0
 763 -15 731 -8 701 5 c 1
 701 -1 702 -6 702 -12 c 0
 702 -168 501 -300 317 -301 c 0
 185 -301 64 -240 64 -56 c 0
 64 20 84 115 133 237 c 1
 192 214 l 1
 152 121 135 43 135 -19 c 0
 135 -140 204 -201 316 -201 c 0
 422 -201 556 -140 625 -65 c 1
 627 -59 627 -52 627 -44 c 0
EndSplineSet
Colour: ffda6b
EndChar

StartChar: _.sin.medi
Encoding: 65550 -1 14
GlifName: _.sin.medi
Width: 1037
VWidth: 1304
GlyphClass: 1
UnlinkRmOvrlpSave: 1
Flags: HMW
LayerCount: 2
Fore
SplineSet
-50 49 m 0
 -50 75 -28 99 -2 100 c 0
 116 100 179 103 216 210 c 2
 248 303 l 1
 317 290 l 1
 282 176 l 2
 275 153 268 131 258 114 c 1
 289 95 329 80 367 80 c 0
 413 80 455 102 472 166 c 2
 509 299 l 1
 579 287 l 1
 542 149 l 1
 572 121 621 84 665 80 c 0
 693 80 754 118 764 138 c 1
 716 300 l 1
 795 331 l 1
 829 220 l 1
 863 113 919 100 1037 100 c 1
 1037 -0 l 1
 1028 0 1019 0 1010 -0 c 0
 942 0 867 6 813 65 c 1
 772 11 704 -21 663 -22 c 0
 594 -20 552 17 508 58 c 1
 508 69 l 1
 471 13 413 -16 352 -16 c 0
 300 -16 246 4 199 44 c 1
 148 5 85 -1 27 -1 c 0
 17 -1 8 0 -1 -0 c 0
 -25 0 -50 24 -50 49 c 0
EndSplineSet
Colour: ffda6b
EndChar

StartChar: _.sin.init
Encoding: 65551 -1 15
GlifName: _.sin.init
Width: 899
VWidth: 1304
GlyphClass: 1
UnlinkRmOvrlpSave: 1
Flags: HMW
LayerCount: 2
Fore
SplineSet
-50 49 m 0
 -50 75 -28 99 -2 100 c 0
 116 100 179 103 216 210 c 2
 248 303 l 1
 317 290 l 1
 282 176 l 2
 275 153 268 131 258 114 c 1
 289 95 329 80 367 80 c 0
 413 80 455 102 472 166 c 2
 509 299 l 1
 579 287 l 1
 541 141 l 1
 571 115 614 85 655 81 c 0
 683 81 745 120 755 140 c 1
 755 171 739 225 703 333 c 1
 780 399 l 1
 801 346 835 246 835 164 c 0
 835 51 716 -18 653 -22 c 1
 585 -18 544 16 500 55 c 1
 463 8 410 -16 353 -16 c 0
 301 -16 247 4 199 44 c 1
 148 5 85 -1 27 -1 c 0
 17 -1 8 0 -1 -0 c 0
 -25 0 -50 24 -50 49 c 0
EndSplineSet
Colour: ffda6b
EndChar

StartChar: _.sad.isol
Encoding: 65552 -1 16
GlifName: _.sad.isol
Width: 1390
VWidth: 1304
GlyphClass: 1
UnlinkRmOvrlpSave: 1
Flags: HMW
LayerCount: 2
Fore
SplineSet
753 108 m 1
 849 220 1002 439 1149 439 c 0
 1267 439 1326 331 1326 245 c 2
 1326 244 l 2
 1326 80 1209 0 1003 -0 c 2
 787 -0 l 1
 751 4 722 13 700 23 c 1
 701 11 702 -1 702 -12 c 0
 702 -168 501 -300 317 -301 c 0
 185 -301 64 -240 64 -56 c 0
 64 20 84 115 133 237 c 1
 192 214 l 1
 152 121 135 43 135 -19 c 0
 135 -140 204 -201 316 -201 c 0
 422 -201 556 -140 625 -65 c 1
 627 -59 627 -53 627 -44 c 0
 627 25 580 172 562 228 c 1
 637 293 l 1
 654 247 670 190 682 132 c 1
 702 123 726 114 753 108 c 1
814 100 m 1
 1000 100 l 2
 1154 100 1224 142 1251 180 c 1
 1251 184 1252 189 1252 193 c 0
 1252 259 1209 340 1119 340 c 0
 1008 340 887 189 814 100 c 1
EndSplineSet
Colour: ffda6b
EndChar

StartChar: _.sad.fina
Encoding: 65553 -1 17
GlifName: _.sad.fina
Width: 1462
VWidth: 1304
GlyphClass: 1
UnlinkRmOvrlpSave: 1
Flags: HMW
LayerCount: 2
Fore
SplineSet
753 108 m 1
 849 220 1002 439 1149 439 c 0
 1267 439 1326 331 1326 245 c 2
 1326 244 l 2
 1326 208 1320 176 1309 148 c 1
 1311 136 1320 124 1340 119 c 0
 1373 109 1413 100 1462 100 c 1
 1462 -0 l 1
 1394 0 1350 10 1319 27 c 0
 1292 38 1272 54 1257 72 c 1
 1202 24 1116 0 1003 -0 c 2
 787 -0 l 1
 751 4 722 13 700 23 c 1
 701 11 702 -1 702 -12 c 0
 702 -168 501 -300 317 -301 c 0
 185 -301 64 -240 64 -56 c 0
 64 20 84 115 133 237 c 1
 192 214 l 1
 152 121 135 43 135 -19 c 0
 135 -140 204 -201 316 -201 c 0
 422 -201 556 -140 625 -65 c 1
 627 -59 627 -53 627 -44 c 0
 627 25 580 172 562 228 c 1
 637 293 l 1
 654 247 670 190 682 132 c 1
 702 123 726 114 753 108 c 1
814 100 m 1
 1000 100 l 2
 1154 100 1224 142 1251 180 c 1
 1251 184 1252 189 1252 193 c 0
 1252 259 1209 340 1119 340 c 0
 1008 340 887 189 814 100 c 1
EndSplineSet
Colour: ffda6b
EndChar

StartChar: _.sad.medi
Encoding: 65554 -1 18
GlifName: _.sad.medi
Width: 1026
VWidth: 1304
GlyphClass: 1
UnlinkRmOvrlpSave: 1
Flags: HMW
LayerCount: 2
Fore
SplineSet
318 109 m 1
 414 222 569 439 714 439 c 0
 832 439 891 331 891 245 c 2
 891 244 l 2
 891 208 884 176 873 148 c 1
 875 136 884 124 904 119 c 0
 937 109 977 100 1026 100 c 1
 1026 -0 l 1
 958 0 914 10 883 27 c 0
 856 38 837 54 822 72 c 1
 767 24 680 0 567 -0 c 2
 389 -0 l 2
 289 0 242 27 212 80 c 1
 186 43 118 0 0 -0 c 0
 -26 0 -50 24 -50 50 c 0
 -49 76 -26 100 0 100 c 0
 89 100 148 125 186 151 c 1
 175 188 168 232 157 285 c 1
 226 305 l 1
 247 188 265 130 318 109 c 1
378 100 m 1
 564 100 l 2
 718 100 788 142 815 180 c 1
 815 184 816 189 816 193 c 0
 816 259 774 340 684 340 c 0
 573 340 449 189 378 100 c 1
EndSplineSet
Colour: ffda6b
EndChar

StartChar: _.sad.init
Encoding: 65555 -1 19
GlifName: _.sad.init
Width: 955
VWidth: 1304
GlyphClass: 1
UnlinkRmOvrlpSave: 1
Flags: HMW
LayerCount: 2
Fore
SplineSet
318 109 m 1
 414 222 569 439 714 439 c 0
 832 439 891 331 891 245 c 2
 891 244 l 2
 891 80 773 0 567 -0 c 2
 389 -0 l 2
 289 0 242 27 212 80 c 1
 186 43 118 0 0 -0 c 0
 -26 0 -50 24 -50 50 c 0
 -49 76 -26 100 0 100 c 0
 89 100 148 125 186 151 c 1
 175 188 168 232 157 285 c 1
 226 305 l 1
 247 188 265 130 318 109 c 1
378 100 m 1
 564 100 l 2
 718 100 788 142 815 180 c 1
 815 184 816 189 816 193 c 0
 816 259 774 340 684 340 c 0
 573 340 449 189 378 100 c 1
EndSplineSet
Colour: ffda6b
EndChar

StartChar: _.ta.isol
Encoding: 65556 -1 20
GlifName: _.ta.isol
Width: 891
VWidth: 1304
GlyphClass: 1
UnlinkRmOvrlpSave: 1
Flags: HMW
LayerCount: 2
Fore
SplineSet
316 183 m 1
 409 297 532 439 650 439 c 0
 768 439 827 331 827 245 c 2
 827 244 l 2
 827 80 709 0 503 -0 c 2
 146 -0 l 2
 129 0 64 60 64 87 c 0
 64 95 69 100 82 100 c 2
 196 100 l 2
 228 100 245 114 244 141 c 2
 218 700 l 2
 218 703 218 706 218 709 c 0
 218 751 229 758 303 800 c 1
 312 800 316 798 316 789 c 2
 316 183 l 1
316 100 m 1
 501 100 l 2
 655 100 725 142 752 180 c 1
 752 184 753 189 753 193 c 0
 753 259 710 340 620 340 c 0
 509 340 387 189 316 100 c 1
EndSplineSet
Colour: ffda6b
EndChar

StartChar: _.ta.fina
Encoding: 65557 -1 21
GlifName: _.ta.fina
Width: 949
VWidth: 1304
GlyphClass: 1
UnlinkRmOvrlpSave: 1
Flags: HMW
LayerCount: 2
Fore
SplineSet
316 183 m 1
 409 297 532 439 650 439 c 0
 768 439 827 331 827 245 c 2
 827 244 l 2
 827 201 819 164 804 133 c 1
 809 127 816 121 827 119 c 0
 860 109 900 100 949 100 c 1
 949 -0 l 1
 881 0 837 10 806 27 c 0
 781 37 765 50 750 66 c 1
 695 22 610 0 503 -0 c 2
 146 -0 l 2
 129 0 64 60 64 87 c 0
 64 95 69 100 82 100 c 2
 196 100 l 2
 228 100 245 114 244 141 c 2
 218 700 l 2
 218 703 218 706 218 709 c 0
 218 751 229 758 303 800 c 1
 312 800 316 798 316 789 c 2
 316 183 l 1
316 100 m 1
 501 100 l 2
 655 100 725 142 752 180 c 1
 752 184 753 189 753 193 c 0
 753 259 710 340 620 340 c 0
 509 340 387 189 316 100 c 1
EndSplineSet
Colour: ffda6b
EndChar

StartChar: _.ta.medi
Encoding: 65558 -1 22
GlifName: _.ta.medi
Width: 792
VWidth: 1304
GlyphClass: 1
UnlinkRmOvrlpSave: 1
Flags: HMW
LayerCount: 2
Fore
SplineSet
159 183 m 1
 252 297 375 439 493 439 c 0
 611 439 670 331 670 245 c 2
 670 244 l 2
 670 201 662 164 647 133 c 1
 652 127 659 121 670 119 c 0
 703 109 743 100 792 100 c 1
 792 -0 l 1
 724 0 680 10 649 27 c 0
 624 37 608 50 593 66 c 1
 538 22 453 0 346 -0 c 2
 0 -0 l 2
 -26 0 -50 24 -50 50 c 0
 -50 76 -26 100 -1 100 c 2
 39 100 l 2
 71 100 88 114 87 141 c 2
 61 700 l 2
 61 703 61 706 61 709 c 0
 61 751 72 758 146 800 c 1
 155 800 159 798 159 789 c 2
 159 183 l 1
159 100 m 1
 344 100 l 2
 498 100 568 142 595 180 c 1
 595 184 596 189 596 193 c 0
 596 259 553 340 463 340 c 0
 352 340 230 189 159 100 c 1
EndSplineSet
Colour: ffda6b
EndChar

StartChar: _.ta.init
Encoding: 65559 -1 23
GlifName: _.ta.init
Width: 734
VWidth: 1304
GlyphClass: 1
UnlinkRmOvrlpSave: 1
Flags: HMW
LayerCount: 2
Fore
SplineSet
159 183 m 1
 252 297 375 439 493 439 c 0
 611 439 670 331 670 245 c 2
 670 244 l 2
 670 80 552 0 346 -0 c 2
 0 -0 l 2
 -26 0 -50 24 -50 50 c 0
 -50 76 -26 100 -1 100 c 2
 39 100 l 2
 71 100 88 114 87 141 c 2
 61 700 l 2
 61 703 61 706 61 709 c 0
 61 751 72 758 146 800 c 1
 155 800 159 798 159 789 c 2
 159 183 l 1
159 100 m 1
 344 100 l 2
 498 100 568 142 595 180 c 1
 595 184 596 189 596 193 c 0
 596 259 553 340 463 340 c 0
 352 340 230 189 159 100 c 1
EndSplineSet
Colour: ffda6b
EndChar

StartChar: _.ein.isol
Encoding: 65560 -1 24
GlifName: _.ein.isol
Width: 645
VWidth: 1304
GlyphClass: 1
UnlinkRmOvrlpSave: 1
Flags: HMW
LayerCount: 2
Fore
SplineSet
358 500 m 0
 258 500 207 463 207 431 c 0
 207 388 244 294 330 268 c 1
 405 282 472 291 570 316 c 1
 541 224 l 1
 457 203 371 161 297 128 c 1
 207 73 144 0 128 -74 c 0
 126 -83 125 -93 125 -102 c 0
 125 -200 237 -301 442 -301 c 0
 485 -301 531 -297 581 -287 c 1
 560 -387 l 1
 510 -397 463 -401 419 -401 c 0
 198 -401 64 -283 64 -120 c 0
 64 -107 65 -93 67 -79 c 0
 81 21 138 119 233 193 c 1
 184 242 134 319 134 398 c 0
 134 417 137 435 143 454 c 0
 180 558 258 602 339 602 c 0
 403 602 469 575 521 530 c 1
 502 475 l 1
 446 493 399 500 358 500 c 0
EndSplineSet
Colour: ffda6b
EndChar

StartChar: _.ein.fina
Encoding: 65561 -1 25
GlifName: _.ein.fina
Width: 671
VWidth: 1304
GlyphClass: 1
UnlinkRmOvrlpSave: 1
Flags: HMW
LayerCount: 2
Fore
SplineSet
64 -120 m 0
 64 -107 65 -93 67 -79 c 0
 81 27 144 130 250 205 c 0
 256 210 263 214 269 219 c 1
 255 240 241 260 229 276 c 0
 193 318 143 352 108 352 c 0
 101 352 94 350 89 347 c 1
 89 348 l 1
 80 345 l 1
 80 345 107 437 109 447 c 1
 196 497 292 525 374 532 c 0
 386 533 397 533 407 533 c 0
 518 533 558 480 558 415 c 0
 558 407 558 399 557 391 c 0
 547 322 489 240 399 181 c 1
 443 137 502 102 578 100 c 1
 671 100 l 1
 671 -0 l 1
 570 -0 l 2
 566 0 563 0 559 -0 c 0
 448 0 376 69 322 143 c 1
 310 136 298 129 287 122 c 0
 203 68 144 -3 128 -74 c 0
 126 -83 125 -93 125 -102 c 0
 125 -200 237 -301 442 -301 c 0
 485 -301 531 -297 581 -287 c 1
 560 -387 l 1
 510 -397 463 -401 419 -401 c 0
 198 -401 64 -283 64 -120 c 0
202 394 m 1
 258 361 292 315 335 256 c 1
 381 277 486 345 491 391 c 1
 482 415 443 431 393 431 c 0
 324 431 263 415 202 394 c 1
EndSplineSet
Colour: ffda6b
EndChar

StartChar: _.ein.medi
Encoding: 65562 -1 26
GlifName: _.ein.medi
Width: 648
VWidth: 1304
GlyphClass: 1
UnlinkRmOvrlpSave: 1
Flags: HMW
LayerCount: 2
Fore
SplineSet
-50 49 m 0
 -50 76 -27 100 -1 100 c 0
 74 100 166 117 248 144 c 1
 233 161 220 180 206 196 c 0
 172 237 124 263 89 263 c 0
 83 263 77 263 72 261 c 2
 57 253 l 1
 57 253 84 346 85 356 c 1
 172 406 270 434 351 441 c 0
 363 442 374 442 384 442 c 0
 495 442 536 390 536 326 c 0
 536 318 535 309 534 300 c 0
 525 241 481 181 412 129 c 1
 451 112 498 101 556 100 c 1
 648 100 l 1
 648 -0 l 1
 547 -0 l 2
 540 0 534 -1 527 -1 c 0
 434 -1 369 31 318 72 c 1
 229 28 118 0 -1 -0 c 0
 -25 0 -50 24 -50 49 c 0
188 306 m 1
 243 271 279 220 333 176 c 1
 412 212 468 256 468 300 c 1
 460 324 420 340 370 340 c 0
 305 340 247 325 188 306 c 1
EndSplineSet
Colour: ffda6b
EndChar

StartChar: _.ein.init
Encoding: 65563 -1 27
GlifName: _.ein.init
Width: 574
VWidth: 1304
GlyphClass: 1
UnlinkRmOvrlpSave: 1
Flags: HMW
LayerCount: 2
Fore
SplineSet
319 380 m 0
 218 380 166 342 166 310 c 0
 166 267 205 168 297 146 c 1
 370 162 441 178 510 180 c 1
 489 100 l 1
 381 90 186 0 0 -0 c 1
 -25 1 -50 24 -50 50 c 0
 -50 75 -26 100 -1 100 c 0
 51 100 104 107 156 117 c 1
 123 163 94 219 94 277 c 0
 94 296 97 314 104 333 c 0
 141 438 219 482 300 482 c 0
 363 482 429 456 481 411 c 1
 462 356 l 1
 407 373 359 380 319 380 c 0
EndSplineSet
Colour: ffda6b
EndChar

StartChar: _.feh.isol
Encoding: 65564 -1 28
GlifName: _.feh.isol
Width: 931
VWidth: 1304
GlyphClass: 1
UnlinkRmOvrlpSave: 1
Flags: HMW
LayerCount: 2
Fore
SplineSet
545 322 m 0
 545 411 590 582 695 582 c 0
 816 582 867 398 867 235 c 0
 867 217 866 199 865 182 c 0
 856 86 814 66 717 40 c 0
 625 17 504 1 423 -0 c 0
 229 0 64 28 64 214 c 0
 64 267 77 331 106 412 c 1
 165 388 l 1
 148 335 138 289 138 250 c 0
 138 153 206 101 419 101 c 0
 421 101 422 101 424 101 c 0
 532 101 674 126 785 159 c 1
 786 173 786 187 786 201 c 0
 786 207 786 213 786 219 c 1
 755 205 721 200 687 200 c 0
 587 200 545 259 545 322 c 0
601 355 m 0
 601 300 651 300 687 300 c 2
 692 300 l 2
 719 300 749 308 777 319 c 1
 761 406 730 480 689 480 c 0
 653 480 618 425 604 379 c 0
 602 370 601 362 601 355 c 0
EndSplineSet
Colour: ffda6b
EndChar

StartChar: _.feh.fina
Encoding: 65565 -1 29
GlifName: _.feh.fina
Width: 1052
VWidth: 1304
GlyphClass: 1
UnlinkRmOvrlpSave: 1
Flags: HMW
LayerCount: 2
Fore
SplineSet
775 56 m 1
 676 28 523 0 423 -0 c 0
 229 0 64 28 64 214 c 0
 64 267 77 331 106 412 c 1
 165 388 l 1
 148 335 138 289 138 250 c 0
 138 153 206 101 419 101 c 0
 421 101 422 101 424 101 c 0
 498 101 590 111 676 128 c 1
 646 158 627 189 618 220 c 0
 616 227 616 236 616 245 c 0
 616 325 681 480 786 480 c 0
 877 480 937 337 937 279 c 0
 937 221 912 166 867 121 c 1
 914 107 965 100 1017 100 c 2
 1052 100 l 1
 1052 -0 l 1
 1021 -0 l 2
 926 0 841 22 775 56 c 1
676 253 m 1
 698 216 733 184 777 159 c 1
 838 191 877 232 877 255 c 0
 877 295 818 379 777 379 c 0
 776 379 l 0
 738 379 677 300 676 253 c 1
EndSplineSet
Colour: ffda6b
EndChar

StartChar: _.feh.medi
Encoding: 65566 -1 30
GlifName: _.feh.medi
Width: 524
VWidth: 1304
GlyphClass: 1
UnlinkRmOvrlpSave: 1
Flags: HMW
LayerCount: 2
Fore
SplineSet
-50 50 m 0
 -49 75 -27 99 -2 100 c 0
 56 100 109 108 155 121 c 1
 122 152 99 187 90 220 c 0
 88 227 88 236 88 245 c 0
 88 325 153 480 258 480 c 0
 349 480 409 337 409 279 c 0
 409 221 383 166 338 121 c 1
 385 107 437 100 489 100 c 2
 524 100 l 1
 524 -0 l 1
 493 -0 l 2
 398 0 314 22 248 56 c 1
 181 21 95 0 0 -0 c 1
 -23 1 -50 24 -50 50 c 0
148 253 m 1
 169 216 205 184 249 159 c 1
 311 192 349 232 349 255 c 0
 349 295 289 379 249 379 c 0
 248 379 l 0
 210 379 149 300 148 253 c 1
EndSplineSet
Colour: ffda6b
EndChar

StartChar: _.feh.init
Encoding: 65567 -1 31
GlifName: _.feh.init
Width: 417
VWidth: 1304
GlyphClass: 1
UnlinkRmOvrlpSave: 1
Flags: HMW
LayerCount: 2
Fore
SplineSet
31 322 m 0
 31 411 76 582 181 582 c 0
 301 582 353 398 353 235 c 0
 353 214 352 193 350 173 c 1
 346 52 237 0 110 -0 c 2
 0 -0 l 2
 -25 0 -50 24 -50 50 c 0
 -49 76 -25 100 0 100 c 2
 110 100 l 2
 164 100 220 109 268 134 c 1
 272 154 273 175 273 198 c 0
 273 205 273 212 273 219 c 1
 241 205 208 200 174 200 c 0
 74 200 31 259 31 322 c 0
88 355 m 0
 88 300 138 300 174 300 c 2
 179 300 l 2
 206 300 236 308 264 319 c 1
 248 406 216 480 175 480 c 0
 139 480 104 425 90 379 c 0
 88 370 88 362 88 355 c 0
EndSplineSet
Colour: ffda6b
EndChar

StartChar: _.qaf.isol
Encoding: 65568 -1 32
GlifName: _.qaf.isol
Width: 802
VWidth: 1304
GlyphClass: 1
UnlinkRmOvrlpSave: 1
Flags: HMW
LayerCount: 2
Fore
SplineSet
412 156 m 0
 412 259 474 383 572 383 c 0
 626 383 666 341 694 280 c 0
 724 218 738 135 738 56 c 0
 738 13 737 -32 725 -67 c 0
 679 -212 506 -300 351 -301 c 0
 201 -301 64 -219 64 -31 c 0
 64 42 84 130 132 236 c 1
 193 213 l 1
 158 125 141 53 141 -5 c 0
 141 -140 226 -198 350 -198 c 0
 351 -198 352 -198 353 -198 c 0
 453 -198 600 -145 642 -79 c 1
 651 -45 656 -11 657 23 c 1
 615 7 579 0 549 0 c 0
 452 0 412 74 412 156 c 0
473 170 m 0
 473 135 494 104 552 104 c 0
 577 104 609 110 650 123 c 1
 642 167 628 206 611 235 c 0
 593 265 570 283 547 283 c 0
 515 283 473 221 473 170 c 0
EndSplineSet
Colour: ffda6b
EndChar

StartChar: _.qaf.fina
Encoding: 65569 -1 33
GlifName: _.qaf.fina
Width: 828
VWidth: 1304
GlyphClass: 1
UnlinkRmOvrlpSave: 1
Flags: HMW
LayerCount: 2
Fore
SplineSet
414 122 m 0
 414 210 459 381 563 381 c 0
 669 381 722 243 734 100 c 1
 828 100 l 1
 828 -0 l 1
 736 -0 l 1
 735 -7 734 -17 733 -24 c 0
 711 -195 522 -300 351 -301 c 0
 201 -301 64 -219 64 -31 c 0
 64 42 84 130 132 236 c 1
 193 213 l 1
 158 125 141 53 141 -5 c 0
 141 -140 226 -198 350 -198 c 0
 351 -198 352 -198 353 -198 c 0
 458 -198 615 -140 647 -69 c 1
 647 -68 l 1
 651 -48 653 -25 654 -0 c 1
 555 -0 l 1
 456 1 414 59 414 122 c 0
471 154 m 0
 471 101 519 100 555 100 c 2
 648 100 l 1
 634 195 601 280 558 280 c 0
 522 280 487 224 473 178 c 0
 471 169 471 161 471 154 c 0
EndSplineSet
Colour: ffda6b
EndChar

StartChar: _.kaf.isol.fa
Encoding: 65570 -1 34
GlifName: _.kaf.isol.fa
Width: 1096
VWidth: 1304
GlyphClass: 1
UnlinkRmOvrlpSave: 1
Flags: HMW
LayerCount: 2
Fore
SplineSet
64 214 m 0
 64 267 77 331 106 412 c 1
 165 388 l 1
 148 335 138 289 138 250 c 0
 138 153 206 101 419 101 c 0
 421 101 422 101 424 101 c 0
 538 101 690 128 803 165 c 1
 803 217 728 390 562 500 c 1
 599 620 l 1
 1032 800 l 1
 1026 692 l 1
 659 546 l 1
 734 480 787 414 820 354 c 0
 850 298 865 247 865 205 c 0
 865 196 864 188 863 180 c 0
 854 68 813 67 717 42 c 0
 625 19 504 1 423 -0 c 0
 229 0 64 28 64 214 c 0
EndSplineSet
Colour: ffda6b
EndChar

StartChar: _.kaf.isol.ar
Encoding: 65571 -1 35
GlifName: _.kaf.isol.ar
Width: 928
VWidth: 1304
GlyphClass: 1
UnlinkRmOvrlpSave: 1
Flags: HMW
LayerCount: 2
Fore
SplineSet
64 214 m 0
 64 267 77 331 106 412 c 1
 165 388 l 1
 148 335 138 289 138 250 c 0
 138 153 206 101 419 101 c 0
 421 101 422 101 424 101 c 0
 536 101 685 127 798 164 c 1
 774 700 l 1
 854 720 l 1
 864 177 l 1
 855 67 813 67 717 42 c 0
 625 19 504 1 423 -0 c 0
 229 0 64 28 64 214 c 0
EndSplineSet
Colour: ffda6b
EndChar

StartChar: _.kaf.fina.fa
Encoding: 65572 -1 36
GlifName: _.kaf.fina.fa
Width: 1084
VWidth: 1304
GlyphClass: 1
UnlinkRmOvrlpSave: 1
Flags: HMW
LayerCount: 2
Fore
SplineSet
64 214 m 0
 64 267 77 331 106 412 c 1
 165 388 l 1
 148 335 138 289 138 250 c 0
 138 153 206 101 419 101 c 0
 421 101 422 101 424 101 c 0
 538 101 690 128 803 165 c 1
 803 217 728 390 562 500 c 1
 599 620 l 1
 1032 800 l 1
 1026 692 l 1
 659 546 l 1
 751 465 796 402 840 315 c 0
 888 213 936 100 1058 100 c 2
 1084 100 l 1
 1084 -0 l 1
 1058 -0 l 2
 946 0 891 43 849 109 c 1
 828 65 787 60 717 42 c 0
 625 19 504 1 423 -0 c 0
 229 0 64 28 64 214 c 0
EndSplineSet
Colour: ffda6b
EndChar

StartChar: _.kaf.fina.ar
Encoding: 65573 -1 37
GlifName: _.kaf.fina.ar
Width: 1057
VWidth: 1304
GlyphClass: 1
UnlinkRmOvrlpSave: 1
Flags: HMW
LayerCount: 2
Fore
SplineSet
64 214 m 0
 64 267 77 331 106 412 c 1
 165 388 l 1
 148 335 138 289 138 250 c 0
 138 153 206 101 419 101 c 0
 421 101 422 101 424 101 c 0
 537 101 688 128 801 165 c 1
 776 700 l 1
 856 720 l 1
 866 240 l 1
 902 159 951 101 1057 100 c 1
 1057 -0 l 1
 947 0 888 31 841 97 c 1
 819 64 780 58 717 42 c 0
 625 19 504 1 423 -0 c 0
 229 0 64 28 64 214 c 0
EndSplineSet
Colour: ffda6b
EndChar

StartChar: _.kaf.medi
Encoding: 65574 -1 38
GlifName: _.kaf.medi
Width: 537
VWidth: 1304
GlyphClass: 1
UnlinkRmOvrlpSave: 1
Flags: HMW
LayerCount: 2
Fore
SplineSet
-50 50 m 0
 -50 76 -25 100 0 100 c 0
 28 100 57 100 85 100 c 0
 145 100 240 126 255 154 c 0
 256 156 257 159 257 164 c 0
 257 214 181 390 15 500 c 1
 52 620 l 1
 486 800 l 1
 479 692 l 1
 112 546 l 1
 204 465 249 402 293 315 c 0
 341 213 389 100 511 100 c 2
 537 100 l 1
 537 -0 l 1
 511 -0 l 2
 397 0 342 44 300 113 c 1
 266 27 189 0 77 -0 c 0
 52 0 25 0 0 -0 c 0
 -25 0 -50 24 -50 50 c 0
EndSplineSet
Colour: ffda6b
EndChar

StartChar: _.kaf.init
Encoding: 65575 -1 39
GlifName: _.kaf.init
Width: 550
VWidth: 1304
GlyphClass: 1
UnlinkRmOvrlpSave: 1
Flags: HMW
LayerCount: 2
Fore
SplineSet
-50 50 m 0
 -50 76 -25 100 0 100 c 0
 28 100 57 100 85 100 c 0
 145 100 240 126 255 154 c 0
 256 156 257 159 257 164 c 0
 257 214 181 390 15 500 c 1
 52 620 l 1
 486 800 l 1
 479 692 l 1
 112 546 l 1
 257 418 319 293 319 205 c 0
 319 196 318 188 317 180 c 0
 297 40 215 0 77 -0 c 0
 52 0 25 0 0 -0 c 0
 -25 0 -50 24 -50 50 c 0
EndSplineSet
Colour: ffda6b
EndChar

StartChar: _.ghaf.isol
Encoding: 65577 -1 41
GlifName: _.ghaf.isol
Width: 1096
VWidth: 0
GlyphClass: 1
UnlinkRmOvrlpSave: 1
Flags: HMW
LayerCount: 2
Fore
SplineSet
64 214 m 0
 64 267 77 331 106 412 c 1
 165 388 l 1
 148 335 138 289 138 250 c 0
 138 153 206 101 419 101 c 0
 421 101 422 101 424 101 c 0
 538 101 690 128 803 165 c 1
 803 217 728 390 562 500 c 1
 599 620 l 1
 1032 800 l 1
 1026 692 l 1
 659 546 l 1
 734 480 787 414 820 354 c 0
 850 298 865 247 865 205 c 0
 865 196 864 188 863 180 c 0
 854 68 813 67 717 42 c 0
 625 19 504 1 423 -0 c 0
 229 0 64 28 64 214 c 0
612 682 m 1
 617 742 l 1
 987 890 l 1
 987 833 l 1
 612 682 l 1
EndSplineSet
Colour: ffda6b
EndChar

StartChar: _.ghaf.fina
Encoding: 65578 -1 42
GlifName: _.ghaf.fina
Width: 1084
VWidth: 0
GlyphClass: 1
Flags: HMW
LayerCount: 2
Fore
SplineSet
64 214 m 0
 64 267 77 331 106 412 c 1
 165 388 l 1
 148 335 138 289 138 250 c 0
 138 153 206 101 419 101 c 0
 421 101 422 101 424 101 c 0
 538 101 690 128 803 165 c 1
 803 217 728 390 562 500 c 1
 599 620 l 1
 1032 800 l 1
 1026 692 l 1
 659 546 l 1
 751 465 796 402 840 315 c 0
 888 213 936 100 1058 100 c 2
 1084 100 l 1
 1084 -0 l 1
 1058 -0 l 2
 946 0 891 43 849 109 c 1
 828 65 787 60 717 42 c 0
 625 19 504 1 423 -0 c 0
 229 0 64 28 64 214 c 0
612 682 m 1
 617 742 l 1
 987 890 l 1
 987 833 l 1
 612 682 l 1
EndSplineSet
Colour: ffda6b
EndChar

StartChar: _.lam.isol
Encoding: 65580 -1 44
GlifName: _.lam.isol
Width: 766
VWidth: 1304
GlyphClass: 1
UnlinkRmOvrlpSave: 1
Flags: HMW
LayerCount: 2
Fore
SplineSet
317 -201 m 0
 438 -201 574 -126 638 -56 c 1
 604 700 l 2
 604 703 604 706 604 709 c 0
 604 751 615 758 690 800 c 0
 697 800 702 798 702 789 c 2
 702 -15 l 1
 700 -170 499 -300 318 -301 c 0
 185 -301 64 -240 64 -56 c 0
 64 20 84 115 133 237 c 1
 192 214 l 1
 152 121 135 43 135 -19 c 0
 135 -140 204 -201 317 -201 c 0
EndSplineSet
Colour: ffda6b
EndChar

StartChar: _.lam.fina
Encoding: 65581 -1 45
GlifName: _.lam.fina
Width: 856
VWidth: 1304
GlyphClass: 1
UnlinkRmOvrlpSave: 1
Flags: HMW
LayerCount: 2
Fore
SplineSet
317 -201 m 0
 438 -201 574 -126 638 -56 c 1
 604 700 l 2
 604 703 604 706 604 709 c 0
 604 751 615 758 690 800 c 0
 697 800 702 798 702 789 c 2
 702 157 l 2
 702 140 708 125 734 119 c 0
 766 109 806 100 856 100 c 1
 856 -0 l 1
 788 0 744 10 712 27 c 0
 708 28 706 31 702 32 c 1
 702 16 702 1 702 -15 c 0
 700 -170 499 -300 318 -301 c 0
 185 -301 64 -240 64 -56 c 0
 64 20 84 115 133 237 c 1
 192 214 l 1
 152 121 135 43 135 -19 c 0
 135 -140 204 -201 317 -201 c 0
EndSplineSet
Colour: ffda6b
EndChar

StartChar: _.lam.medi
Encoding: 65582 -1 46
GlifName: _.lam.medi
Width: 419
VWidth: 1304
GlyphClass: 1
UnlinkRmOvrlpSave: 1
Flags: HMW
LayerCount: 2
Fore
SplineSet
218 68 m 1
 175 21 128 0 25 -0 c 2
 -1 -0 l 2
 -25 0 -50 24 -50 49 c 0
 -50 76 -27 100 -1 100 c 2
 25 100 l 2
 83 100 142 110 194 140 c 1
 167 700 l 2
 167 703 167 706 167 709 c 0
 167 751 178 758 253 800 c 0
 260 800 265 798 265 789 c 2
 265 160 l 2
 265 142 271 125 297 119 c 0
 329 109 369 100 419 100 c 1
 419 -0 l 1
 350 0 307 10 275 27 c 0
 252 38 233 51 218 68 c 1
EndSplineSet
Colour: ffda6b
EndChar

StartChar: _.lam.init
Encoding: 65583 -1 47
GlifName: _.lam.init
Width: 304
VWidth: 1304
GlyphClass: 1
UnlinkRmOvrlpSave: 1
Flags: HMW
LayerCount: 2
Fore
SplineSet
-50 50 m 0
 -49 76 -25 100 0 100 c 0
 58 100 118 110 168 140 c 1
 110 700 l 1
 110 749 117 756 196 800 c 1
 205 800 209 798 209 789 c 2
 239 180 l 2
 239 177 240 173 240 170 c 0
 240 106 204 62 148 29 c 0
 115 11 70 0 0 -0 c 0
 -27 1 -50 24 -50 50 c 0
EndSplineSet
Colour: ffda6b
EndChar

StartChar: _.mim.isol
Encoding: 65584 -1 48
GlifName: _.mim.isol
Width: 635
VWidth: 1304
GlyphClass: 1
UnlinkRmOvrlpSave: 1
Flags: HMW
LayerCount: 2
Fore
SplineSet
571 253 m 0
 571 175 535 101 456 100 c 0
 399 100 332 129 283 156 c 1
 245 170 215 176 192 176 c 0
 158 176 138 164 130 151 c 1
 194 -302 l 2
 194 -305 194 -307 194 -310 c 0
 194 -352 192 -360 118 -402 c 1
 109 -402 105 -399 105 -390 c 2
 65 107 l 2
 65 113 64 119 64 125 c 0
 64 213 115 287 207 287 c 0
 219 287 233 286 246 283 c 1
 252 295 l 1
 270 327 290 369 320 422 c 0
 344 465 375 483 407 483 c 0
 486 483 571 371 571 253 c 0
301 266 m 1
 337 245 402 206 470 206 c 0
 483 206 496 208 509 212 c 1
 491 300 424 367 379 367 c 0
 366 367 355 361 347 348 c 0
 329 318 315 291 301 266 c 1
EndSplineSet
Colour: ffda6b
EndChar

StartChar: _.mim.fina
Encoding: 65585 -1 49
GlifName: _.mim.fina
Width: 656
VWidth: 1304
GlyphClass: 1
UnlinkRmOvrlpSave: 1
Flags: HMW
LayerCount: 2
Fore
SplineSet
64 74 m 1
 62 283 244 326 442 330 c 1
 476 352 l 1
 496 248 l 1
 530 124 564 100 656 100 c 1
 656 -0 l 1
 607 0 539 12 492 54 c 1
 448 -13 387 -45 332 -45 c 0
 263 -45 204 7 204 107 c 0
 204 131 207 158 215 188 c 1
 185 176 160 161 139 141 c 1
 156 -376 l 1
 97 -400 l 1
 64 74 l 1
280 141 m 0
 280 86 308 61 346 61 c 0
 378 61 416 78 451 110 c 1
 422 230 l 1
 385 229 339 224 292 213 c 1
 284 185 280 161 280 141 c 0
EndSplineSet
Colour: ffda6b
EndChar

StartChar: _.mim.medi
Encoding: 65586 -1 50
GlifName: _.mim.medi
Width: 657
VWidth: 1304
GlyphClass: 1
UnlinkRmOvrlpSave: 1
Flags: HMW
LayerCount: 2
Fore
SplineSet
-50 50 m 0
 -50 76 -25 100 0 100 c 0
 160 100 171 209 231 300 c 0
 252 331 270 343 289 343 c 0
 372 343 450 100 657 100 c 1
 657 -0 l 1
 586 0 526 25 477 61 c 1
 426 -13 381 -41 336 -41 c 0
 282 -41 228 -1 157 56 c 1
 127 23 84 0 0 -0 c 0
 -25 0 -50 24 -50 50 c 0
206 139 m 1
 267 90 310 60 349 60 c 0
 375 60 399 73 426 103 c 1
 358 166 313 236 279 236 c 0
 271 236 265 233 258 225 c 0
 235 198 220 169 206 139 c 1
EndSplineSet
Colour: ffda6b
EndChar

StartChar: _.mim.init
Encoding: 65587 -1 51
GlifName: _.mim.init
Width: 563
VWidth: 1304
GlyphClass: 1
UnlinkRmOvrlpSave: 1
Flags: HMW
LayerCount: 2
Fore
SplineSet
499 148 m 0
 499 71 464 0 385 -0 c 0
 384 0 383 0 382 -0 c 0
 312 0 221 42 179 71 c 1
 146 25 100 0 0 -0 c 0
 -25 0 -50 24 -50 50 c 0
 -50 76 -25 100 0 100 c 0
 164 100 159 159 248 317 c 0
 272 361 303 379 335 379 c 0
 414 379 499 266 499 148 c 0
229 161 m 1
 281 122 337 101 388 101 c 0
 405 101 422 103 438 108 c 1
 419 196 352 263 307 263 c 0
 294 263 283 257 275 245 c 0
 257 214 243 186 229 161 c 1
EndSplineSet
Colour: ffda6b
EndChar

StartChar: _.nun.isol
Encoding: 65588 -1 52
GlifName: _.nun.isol
Width: 766
VWidth: 1305
GlyphClass: 1
UnlinkRmOvrlpSave: 1
Flags: HMW
LayerCount: 2
Fore
SplineSet
64 -56 m 0
 64 20 84 115 133 237 c 1
 192 214 l 1
 152 121 135 43 135 -19 c 0
 135 -140 204 -201 317 -201 c 0
 422 -201 556 -140 625 -65 c 1
 627 -59 627 -52 627 -43 c 0
 627 26 581 172 562 228 c 1
 638 293 l 1
 669 206 702 67 702 -12 c 0
 702 -168 500 -300 318 -301 c 0
 185 -301 64 -240 64 -56 c 0
EndSplineSet
Colour: ffda6b
EndChar

StartChar: _.nun.fina
Encoding: 65589 -1 53
GlifName: _.nun.fina
Width: 830
VWidth: 1413
GlyphClass: 1
UnlinkRmOvrlpSave: 1
Flags: HMW
LayerCount: 2
Fore
SplineSet
64 -56 m 0
 64 20 84 115 133 237 c 1
 192 214 l 1
 152 121 135 43 135 -19 c 0
 135 -140 204 -201 317 -201 c 0
 422 -201 556 -140 625 -65 c 1
 627 -59 627 -52 627 -43 c 0
 627 26 581 172 562 228 c 1
 638 293 l 1
 653 250 669 193 681 138 c 0
 686 129 693 123 708 119 c 0
 741 109 781 100 830 100 c 1
 830 -0 l 1
 771 0 731 7 700 21 c 1
 701 9 702 -2 702 -12 c 0
 702 -168 500 -300 318 -301 c 0
 185 -301 64 -240 64 -56 c 0
EndSplineSet
Colour: ffda6b
EndChar

StartChar: _.vav.isol
Encoding: 65590 -1 54
GlifName: _.vav.isol
Width: 507
VWidth: 1304
GlyphClass: 1
UnlinkRmOvrlpSave: 1
Flags: HMW
LayerCount: 2
Fore
SplineSet
270 381 m 0
 387 381 443 192 443 55 c 0
 443 -115 273 -281 160 -301 c 1
 137 -301 64 -265 64 -241 c 0
 64 -238 66 -235 69 -232 c 1
 282 -154 357 -48 364 18 c 1
 364 21 l 1
 331 6 298 0 262 -0 c 0
 162 0 120 58 120 122 c 0
 120 210 165 381 270 381 c 0
176 155 m 0
 176 101 226 100 262 100 c 2
 267 100 l 2
 295 100 329 108 357 122 c 1
 342 208 303 280 254 280 c 0
 218 280 192 224 178 178 c 0
 176 169 176 162 176 155 c 0
EndSplineSet
Colour: ffda6b
EndChar

StartChar: _.vav.fina
Encoding: 65591 -1 55
GlifName: _.vav.fina
Width: 535
VWidth: 1304
GlyphClass: 1
UnlinkRmOvrlpSave: 1
Flags: HMW
LayerCount: 2
Fore
SplineSet
119 122 m 0
 119 210 165 381 270 381 c 0
 377 381 430 224 439 100 c 1
 535 100 l 1
 535 -0 l 1
 437 -0 l 1
 406 -149 260 -284 160 -301 c 1
 137 -301 64 -265 64 -241 c 0
 64 -238 66 -235 69 -232 c 1
 264 -162 343 -66 361 -0 c 1
 262 -0 l 2
 161 0 119 58 119 122 c 0
176 155 m 0
 176 101 226 100 262 100 c 2
 361 100 l 1
 349 196 308 280 254 280 c 0
 218 280 192 224 178 178 c 0
 176 169 176 162 176 155 c 0
EndSplineSet
Colour: ffda6b
EndChar

StartChar: _.dal.isol
Encoding: 65592 -1 56
GlifName: _.dal.isol
Width: 508
VWidth: 1304
GlyphClass: 1
UnlinkRmOvrlpSave: 1
Flags: HMW
LayerCount: 2
Fore
SplineSet
444 186 m 0
 444 53 349 0 225 -0 c 0
 70 0 64 62 64 148 c 0
 64 156 64 163 64 171 c 0
 64 185 75 191 87 191 c 0
 99 191 112 184 112 172 c 0
 112 131 141 100 227 100 c 0
 296 100 346 123 380 146 c 1
 382 182 351 292 172 405 c 1
 201 506 l 1
 393 398 444 273 444 186 c 0
EndSplineSet
Colour: ffda6b
EndChar

StartChar: _.dal.fina
Encoding: 65593 -1 57
GlifName: _.dal.fina
Width: 606
VWidth: 1304
GlyphClass: 1
UnlinkRmOvrlpSave: 1
Flags: HMW
LayerCount: 2
Fore
SplineSet
64 148 m 0
 64 156 64 163 64 171 c 0
 64 185 75 191 87 191 c 0
 99 191 112 184 112 172 c 0
 112 131 141 100 227 100 c 0
 295 100 344 122 378 145 c 1
 356 211 339 306 307 438 c 1
 382 482 l 1
 458 139 431 107 606 100 c 1
 606 -0 l 1
 503 4 449 23 412 75 c 1
 374 22 304 0 225 -0 c 0
 70 0 64 62 64 148 c 0
EndSplineSet
Colour: ffda6b
EndChar

StartChar: _.ree.isol
Encoding: 65594 -1 58
GlifName: _.ree.isol
Width: 506
VWidth: 1304
GlyphClass: 1
UnlinkRmOvrlpSave: 1
Flags: HMW
LayerCount: 2
Fore
SplineSet
64 -241 m 0
 64 -238 66 -235 69 -232 c 1
 299 -148 368 -30 364 33 c 1
 355 93 315 200 299 250 c 1
 374 314 l 1
 399 249 430 166 439 90 c 0
 441 79 442 68 442 57 c 0
 442 53 442 49 442 45 c 0
 442 20 438 -3 431 -24 c 0
 392 -163 255 -285 160 -301 c 1
 137 -301 64 -265 64 -241 c 0
EndSplineSet
Colour: ffda6b
EndChar

StartChar: _.ree.fina
Encoding: 65595 -1 59
GlifName: _.ree.fina
Width: 581
VWidth: 1304
GlyphClass: 1
UnlinkRmOvrlpSave: 1
Flags: HMW
LayerCount: 2
Fore
SplineSet
64 -241 m 0
 64 -238 66 -235 69 -232 c 1
 299 -148 368 -30 364 33 c 1
 355 93 315 200 299 250 c 1
 374 314 l 1
 392 264 416 203 431 143 c 0
 435 132 442 123 459 119 c 0
 492 109 532 100 581 100 c 1
 581 -0 l 1
 516 0 473 10 441 26 c 1
 440 9 437 -8 431 -24 c 0
 392 -163 255 -285 160 -301 c 1
 137 -301 64 -265 64 -241 c 0
EndSplineSet
Colour: ffda6b
EndChar

StartChar: _.he8.isol
Encoding: 65596 -1 60
GlifName: _.he8.isol
Width: 471
VWidth: 1304
GlyphClass: 1
UnlinkRmOvrlpSave: 1
Flags: HMW
LayerCount: 2
Fore
SplineSet
237 -0 m 1
 230 0 224 0 217 -0 c 1
 217 1 l 1
 113 7 64 61 64 141 c 0
 64 184 78 234 105 289 c 2
 154 388 l 1
 124 415 l 1
 173 502 l 1
 392 318 407 244 407 180 c 0
 407 174 407 168 407 162 c 0
 407 73 345 7 237 1 c 1
 237 -0 l 1
126 176 m 0
 126 139 148 103 237 100 c 1
 294 102 351 126 351 163 c 0
 351 203 300 258 195 352 c 1
 146 247 l 2
 140 233 126 205 126 176 c 0
EndSplineSet
Colour: ffda6b
EndChar

StartChar: _.he8.fina
Encoding: 65597 -1 61
GlifName: _.he8.fina
Width: 526
VWidth: 1304
GlyphClass: 1
UnlinkRmOvrlpSave: 1
Flags: HMW
LayerCount: 2
Fore
SplineSet
64 220 m 0
 64 259 81 303 110 337 c 0
 138 369 176 389 270 457 c 1
 264 513 l 1
 340 577 l 1
 384 200 l 1
 391 158 386 100 526 100 c 1
 526 -0 l 1
 405 0 328 41 313 122 c 1
 287 112 251 106 214 106 c 0
 194 106 174 108 155 112 c 0
 91 125 64 169 64 220 c 0
134 247 m 0
 134 219 174 214 213 214 c 0
 243 214 275 217 299 223 c 1
 281 374 l 1
 227 340 177 301 155 283 c 0
 142 272 134 259 134 247 c 0
EndSplineSet
Colour: ffda6b
EndChar

StartChar: _.he8.medi
Encoding: 65598 -1 62
GlifName: _.he8.medi
Width: 566
VWidth: 1304
GlyphClass: 1
UnlinkRmOvrlpSave: 1
Flags: HMW
LayerCount: 2
Fore
SplineSet
-50 50 m 0
 -50 75 -27 99 -2 100 c 1
 60 100 l 2
 75 100 87 101 101 101 c 1
 100 112 100 123 100 135 c 0
 100 241 132 398 249 471 c 1
 343 419 388 335 388 251 c 0
 388 149 320 48 189 13 c 1
 221 -37 267 -84 325 -118 c 1
 310 -92 303 -65 303 -38 c 0
 303 35 358 100 462 100 c 2
 566 100 l 1
 566 -0 l 1
 458 -0 l 2
 407 0 382 -30 382 -66 c 0
 382 -112 424 -167 502 -180 c 1
 505 -180 l 1
 452 -264 l 1
 328 -246 171 -132 122 -0 c 1
 -2 -0 l 1
 -27 1 -50 24 -50 50 c 0
156 124 m 0
 156 118 157 112 157 106 c 1
 272 122 331 165 331 222 c 0
 331 260 305 304 252 349 c 1
 184 295 156 197 156 124 c 0
EndSplineSet
Colour: ffda6b
EndChar

StartChar: _.he8.init
Encoding: 65599 -1 63
GlifName: _.he8.init
Width: 618
VWidth: 1304
GlyphClass: 1
UnlinkRmOvrlpSave: 1
Flags: HMW
LayerCount: 2
Fore
SplineSet
143 128 m 1
 102 155 80 193 80 238 c 0
 80 302 121 372 172 416 c 1
 177 513 l 1
 424 402 554 307 554 179 c 0
 554 142 543 102 521 59 c 1
 502 16 475 -1 442 -1 c 0
 419 -1 393 7 365 20 c 0
 311 44 266 63 229 81 c 1
 158 32 70 1 0 -0 c 1
 -25 1 -50 24 -50 50 c 0
 -50 75 -27 99 -2 100 c 0
 37 100 91 110 143 128 c 1
143 284 m 0
 143 235 209 205 255 182 c 1
 281 200 300 220 308 242 c 1
 308 275 305 342 277 364 c 1
 263 372 l 2
 259 373 253 373 248 373 c 0
 205 373 143 332 143 284 c 0
358 283 m 0
 358 225 340 193 310 155 c 1
 337 142 369 128 404 112 c 0
 430 100 450 92 466 92 c 0
 478 92 488 97 497 106 c 1
 498 115 499 124 499 133 c 0
 499 187 470 248 356 320 c 1
 357 308 358 295 358 283 c 0
EndSplineSet
Colour: ffda6b
EndChar

StartChar: _.yeh.fina
Encoding: 65600 -1 64
GlifName: _.yeh.fina
Width: 762
VWidth: 1304
GlyphClass: 1
UnlinkRmOvrlpSave: 1
Flags: HMW
LayerCount: 2
Fore
SplineSet
64 -56 m 0
 64 20 84 115 133 237 c 1
 192 214 l 1
 152 121 135 43 135 -19 c 0
 135 -140 204 -201 316 -201 c 0
 422 -201 556 -140 625 -65 c 0
 629 -60 630 -56 630 -51 c 0
 630 -10 503 24 428 54 c 0
 416 59 420 70 425 80 c 1
 436 111 l 1
 449 143 455 155 470 155 c 0
 474 155 479 154 484 152 c 0
 611 113 661 100 762 100 c 1
 762 -0 l 1
 740 0 719 1 701 2 c 1
 703 -3 702 -7 702 -12 c 0
 702 -168 501 -300 317 -301 c 0
 185 -301 64 -240 64 -56 c 0
EndSplineSet
Colour: ffda6b
EndChar

StartChar: _.yeh.isol
Encoding: 65601 -1 65
GlifName: _.yeh.isol
Width: 787
VWidth: 1304
GlyphClass: 1
UnlinkRmOvrlpSave: 1
Flags: HMW
LayerCount: 2
Fore
SplineSet
64 -56 m 0
 64 20 84 115 133 237 c 1
 192 214 l 1
 152 121 135 43 135 -19 c 0
 135 -140 204 -201 317 -201 c 0
 422 -201 556 -140 625 -65 c 1
 629 -57 631 -49 631 -41 c 0
 631 -18 610 0 546 -0 c 2
 431 -0 l 2
 389 0 367 41 367 96 c 0
 367 210 462 383 674 383 c 0
 690 383 706 382 723 380 c 1
 685 279 l 1
 675 280 666 281 656 281 c 0
 528 281 434 189 434 140 c 0
 434 123 446 111 473 111 c 2
 595 111 l 2
 679 111 702 44 702 -12 c 0
 702 -168 500 -300 318 -301 c 0
 185 -301 64 -240 64 -56 c 0
EndSplineSet
Colour: ffda6b
EndChar

StartChar: _.hamze.isol
Encoding: 65602 -1 66
GlifName: _.hamze.isol
Width: 515
VWidth: 1304
GlyphClass: 2
Flags: HMW
LayerCount: 2
Fore
SplineSet
230 294 m 0
 192 294 167 286 167 258 c 0
 167 216 207 179 246 157 c 1
 419 239 l 1
 451 170 l 1
 96 5 l 1
 64 74 l 1
 169 123 l 1
 118 158 103 201 103 243 c 0
 103 327 142 369 236 369 c 0
 267 369 303 365 347 356 c 1
 332 280 l 1
 298 287 261 294 230 294 c 0
EndSplineSet
Colour: ffda6b
EndChar

StartChar: _.keshide.medi
Encoding: 65603 -1 67
GlifName: _.keshide.medi
Width: 235
VWidth: 1304
GlyphClass: 2
Flags: HMW
LayerCount: 2
Fore
SplineSet
-12 100 m 2
 235 100 l 1
 235 0 l 1
 -12 0 l 2
 -24 0 -33 5 -40 15 c 0
 -47 25 -50 37 -50 50 c 0
 -50 63 -47 75 -40 85 c 0
 -33 95 -24 100 -12 100 c 2
EndSplineSet
Colour: ffda6b
EndChar

StartChar: _.dot.1u
Encoding: 65604 -1 68
GlifName: _.dot.1u
Width: 0
VWidth: 1304
GlyphClass: 2
Flags: HMW
LayerCount: 2
Fore
SplineSet
4 54 m 2
 49 113 l 2
 55 120 66 122 75 116 c 2
 132 72 l 2
 141 66 142 54 136 45 c 2
 92 -12 l 2
 86 -21 73 -22 66 -16 c 2
 7 28 l 2
 0 34 -3 45 4 54 c 2
EndSplineSet
Colour: ffda6b
EndChar

StartChar: _.dot.2u
Encoding: 65605 -1 69
GlifName: _.dot.2u
Width: 0
VWidth: 1304
GlyphClass: 2
UnlinkRmOvrlpSave: 1
Flags: HMW
LayerCount: 2
Fore
SplineSet
3 68 m 2
 45 122 l 2
 51 131 62 131 69 125 c 2
 124 85 l 2
 131 79 132 67 126 60 c 2
 85 6 l 2
 79 -1 68 -4 61 2 c 2
 7 43 l 2
 0 49 -2 61 3 68 c 2
164 68 m 2
 205 122 l 2
 211 131 222 131 229 125 c 2
 284 85 l 2
 291 79 292 67 286 60 c 2
 245 6 l 2
 239 -1 228 -4 221 2 c 2
 167 43 l 2
 160 49 158 61 164 68 c 2
EndSplineSet
Colour: ffda6b
EndChar

StartChar: _.dot.3u
Encoding: 65606 -1 70
GlifName: _.dot.3u
Width: 0
VWidth: 1304
GlyphClass: 2
UnlinkRmOvrlpSave: 1
Flags: HMW
LayerCount: 2
Fore
SplineSet
3 68 m 2
 45 122 l 2
 51 131 62 131 69 125 c 2
 124 85 l 2
 131 79 132 67 126 60 c 2
 85 6 l 2
 79 -1 68 -4 61 2 c 2
 7 43 l 2
 0 49 -2 61 3 68 c 2
81 207 m 2
 119 257 l 1
 125 263 135 265 142 260 c 2
 191 221 l 2
 198 216 200 206 194 199 c 2
 156 149 l 2
 151 143 140 141 133 146 c 2
 84 183 l 2
 77 189 76 200 81 207 c 2
164 68 m 2
 205 122 l 2
 211 131 222 131 229 125 c 2
 284 85 l 2
 291 79 292 67 286 60 c 2
 245 6 l 2
 239 -1 228 -4 221 2 c 2
 167 43 l 2
 160 49 158 61 164 68 c 2
EndSplineSet
Colour: ffda6b
EndChar

StartChar: _.dot.1d
Encoding: 65607 -1 71
GlifName: _.dot.1d
Width: 0
VWidth: 1304
GlyphClass: 2
Flags: HMW
LayerCount: 2
Fore
SplineSet
4 -67 m 2
 48 -8 l 2
 54 1 67 2 74 -4 c 2
 132 -48 l 2
 141 -54 142 -65 136 -74 c 2
 91 -133 l 2
 85 -140 72 -143 65 -137 c 2
 8 -93 l 2
 -1 -87 -2 -74 4 -67 c 2
EndSplineSet
Colour: ffda6b
EndChar

StartChar: _.dot.2d
Encoding: 65608 -1 72
GlifName: _.dot.2d
Width: 0
VWidth: 1304
GlyphClass: 2
UnlinkRmOvrlpSave: 1
Flags: HMW
LayerCount: 2
Fore
SplineSet
3 -62 m 2
 45 -8 l 2
 51 1 62 2 69 -4 c 2
 124 -45 l 2
 131 -51 132 -62 126 -69 c 2
 85 -123 l 2
 79 -130 68 -133 61 -127 c 2
 7 -86 l 2
 0 -80 -2 -69 3 -62 c 2
164 -62 m 2
 205 -8 l 2
 211 1 222 2 229 -4 c 2
 284 -45 l 2
 291 -51 292 -62 286 -69 c 2
 245 -123 l 2
 239 -130 228 -133 221 -127 c 2
 167 -86 l 2
 160 -80 158 -69 164 -62 c 2
EndSplineSet
Colour: ffda6b
EndChar

StartChar: _.dot.3d
Encoding: 65609 -1 73
GlifName: _.dot.3d
Width: 0
VWidth: 1304
GlyphClass: 2
UnlinkRmOvrlpSave: 1
Flags: HMW
LayerCount: 2
Fore
SplineSet
3 -62 m 2
 45 -8 l 2
 51 1 62 2 69 -4 c 2
 124 -45 l 2
 131 -51 132 -62 126 -69 c 2
 85 -123 l 2
 79 -130 68 -133 61 -127 c 2
 7 -86 l 2
 0 -80 -2 -69 3 -62 c 2
90 -203 m 2
 129 -153 l 2
 135 -146 145 -144 152 -149 c 2
 201 -187 l 2
 208 -192 210 -202 205 -209 c 2
 167 -260 l 2
 161 -267 150 -269 143 -264 c 2
 94 -225 l 2
 87 -220 85 -209 90 -203 c 2
164 -62 m 2
 205 -8 l 2
 211 1 222 2 229 -4 c 2
 284 -45 l 2
 291 -51 292 -62 286 -69 c 2
 245 -123 l 2
 239 -130 228 -133 221 -127 c 2
 167 -86 l 2
 160 -80 158 -69 164 -62 c 2
EndSplineSet
Colour: ffda6b
EndChar

StartChar: _.num.0
Encoding: 65611 -1 75
GlifName: _.num.0
Width: 450
VWidth: 1424
GlyphClass: 2
Flags: HMW
LayerCount: 2
Fore
SplineSet
75 327 m 0
 75 409 143 477 225 477 c 0
 307 477 375 409 375 327 c 0
 375 245 307 177 225 177 c 0
 143 177 75 245 75 327 c 0
150 327 m 0
 150 286 183 252 225 252 c 0
 267 252 300 286 300 327 c 0
 300 369 267 402 225 402 c 0
 183 402 150 369 150 327 c 0
EndSplineSet
Colour: ffda6b
EndChar

StartChar: _.num.1
Encoding: 65612 -1 76
GlifName: _.num.1
Width: 349
VWidth: 1331
GlyphClass: 2
Flags: HMW
LayerCount: 2
Fore
SplineSet
75 699 m 1
 160 799 l 1
 261 505 274 420 274 -0 c 1
 203 -20 l 1
 187 300 175 455 75 699 c 1
EndSplineSet
Colour: ffda6b
EndChar

StartChar: _.num.2
Encoding: 65613 -1 77
GlifName: _.num.2
Width: 625
VWidth: 1331
GlyphClass: 2
Flags: HMW
LayerCount: 2
Fore
SplineSet
75 699 m 1
 160 799 l 1
 192 704 216 631 233 561 c 1
 271 533 310 522 345 522 c 0
 411 522 460 562 458 601 c 2
 452 752 l 1
 544 758 l 1
 550 614 l 1
 551 475 448 401 338 401 c 0
 312 401 286 404 260 413 c 1
 272 310 274 190 274 -0 c 1
 203 -20 l 1
 187 300 175 455 75 699 c 1
EndSplineSet
Colour: ffda6b
EndChar

StartChar: _.num.3
Encoding: 65614 -1 78
GlifName: _.num.3
Width: 844
VWidth: 1331
GlyphClass: 2
Flags: HMW
LayerCount: 2
Fore
SplineSet
75 699 m 1
 160 799 l 1
 196 694 221 615 239 539 c 1
 265 527 291 522 314 522 c 0
 379 522 428 561 426 601 c 2
 420 752 l 1
 512 758 l 1
 518 614 l 2
 518 591 516 569 511 551 c 1
 530 545 548 542 565 542 c 0
 630 542 679 581 677 620 c 2
 671 772 l 1
 763 779 l 1
 769 634 l 1
 770 495 667 421 557 421 c 0
 525 421 491 428 460 441 c 1
 441 444 l 1
 404 415 356 400 307 400 c 0
 292 400 276 402 261 405 c 1
 272 304 274 185 274 -0 c 1
 203 -20 l 1
 187 300 175 455 75 699 c 1
EndSplineSet
Colour: ffda6b
EndChar

StartChar: _.num.4.fa
Encoding: 65615 -1 79
GlifName: _.num.4.fa
Width: 741
VWidth: 1331
GlyphClass: 2
Flags: HMW
LayerCount: 2
Fore
SplineSet
268 605 m 0
 268 737 367 797 464 797 c 0
 532 797 600 770 635 729 c 1
 614 671 l 1
 589 684 544 695 496 695 c 0
 442 695 385 681 346 638 c 1
 346 633 345 627 345 622 c 0
 345 547 380 492 425 437 c 1
 435 436 445 436 454 436 c 0
 527 436 585 459 643 479 c 1
 666 379 l 1
 577 344 488 329 409 329 c 0
 356 329 308 335 266 348 c 1
 273 258 274 150 274 -0 c 1
 203 -20 l 1
 187 300 175 455 75 699 c 1
 160 799 l 1
 203 675 230 587 247 496 c 1
 263 487 279 480 294 473 c 1
 278 515 268 562 268 605 c 0
EndSplineSet
Colour: ffda6b
EndChar

StartChar: _.num.5.fa
Encoding: 65617 -1 81
GlifName: _.num.5.fa
Width: 742
VWidth: 1331
GlyphClass: 2
Flags: HMW
LayerCount: 2
Fore
SplineSet
227 -7 m 0
 146 -7 75 54 75 162 c 0
 75 206 89 385 291 652 c 1
 315 634 l 1
 287 657 256 680 222 703 c 1
 283 800 l 1
 283 800 657 575 667 188 c 1
 667 188 671 7 539 -0 c 0
 525 0 510 -2 493 -2 c 0
 446 -2 393 9 366 80 c 1
 335 21 280 -7 227 -7 c 0
509 129 m 0
 544 129 570 146 570 185 c 0
 570 225 559 404 365 589 c 1
 227 400 182 276 182 204 c 0
 182 147 210 122 241 122 c 0
 282 122 329 166 329 238 c 0
 329 242 329 247 329 251 c 1
 414 273 l 1
 414 273 414 271 414 268 c 0
 414 256 414 225 421 191 c 0
 430 151 472 129 509 129 c 0
EndSplineSet
Colour: ffda6b
EndChar

StartChar: _.num.6.fa
Encoding: 65619 -1 83
GlifName: _.num.6.fa
Width: 786
VWidth: 1331
GlyphClass: 2
Flags: HMW
LayerCount: 2
Fore
SplineSet
75 20 m 1
 205 155 290 241 370 306 c 1
 287 355 212 456 212 556 c 0
 212 572 214 588 218 604 c 0
 254 733 366 800 492 800 c 0
 538 800 586 791 633 773 c 1
 619 684 l 1
 593 689 566 693 540 693 c 0
 455 693 374 662 313 577 c 1
 344 498 401 423 470 381 c 1
 538 425 610 465 711 518 c 1
 704 388 l 1
 463 280 347 175 113 -45 c 1
 75 20 l 1
EndSplineSet
Colour: ffda6b
EndChar

StartChar: _.num.7
Encoding: 65621 -1 85
GlifName: _.num.7
Width: 697
VWidth: 1331
GlyphClass: 2
Flags: HMW
LayerCount: 2
Fore
SplineSet
75 699 m 1
 159 799 l 1
 218 677 300 483 348 280 c 1
 395 483 479 677 538 799 c 1
 622 699 l 1
 499 479 384 153 384 -0 c 1
 313 -20 l 1
 304 140 204 465 75 699 c 1
EndSplineSet
Colour: ffda6b
EndChar

StartChar: _.num.8
Encoding: 65622 -1 86
GlifName: _.num.8
Width: 697
VWidth: 1331
GlyphClass: 2
Flags: HMW
LayerCount: 2
Fore
SplineSet
75 80 m 1
 204 314 304 639 313 799 c 1
 384 779 l 1
 384 626 499 300 622 80 c 1
 538 -20 l 1
 479 102 395 295 348 498 c 1
 300 295 218 102 159 -20 c 1
 75 80 l 1
EndSplineSet
Colour: ffda6b
EndChar

StartChar: _.num.9
Encoding: 65623 -1 87
GlifName: _.num.9
Width: 622
VWidth: 1331
GlyphClass: 2
Flags: HMW
LayerCount: 2
Fore
SplineSet
75 554 m 0
 75 671 155 800 263 800 c 0
 355 800 434 704 438 508 c 1
 440 473 448 422 451 388 c 0
 462 265 478 139 547 80 c 1
 463 -20 l 1
 400 75 373 220 359 379 c 1
 345 379 l 1
 316 373 290 371 266 371 c 0
 129 371 75 458 75 554 c 0
157 586 m 0
 157 537 192 487 279 487 c 0
 299 487 322 490 348 496 c 1
 348 501 349 506 349 511 c 0
 349 629 294 671 249 679 c 0
 245 680 240 681 236 681 c 0
 190 681 157 633 157 586 c 0
EndSplineSet
Colour: ffda6b
EndChar

StartChar: _.sing.backslash
Encoding: 65624 -1 88
GlifName: _.sing.backslash
Width: 442
VWidth: 1197
GlyphClass: 2
Flags: HMW
LayerCount: 2
Fore
SplineSet
50 720 m 1
 151 720 l 1
 392 -14 l 1
 290 -14 l 1
 50 720 l 1
EndSplineSet
Colour: ffda6b
EndChar

StartChar: _.sing.slash
Encoding: 65625 -1 89
GlifName: _.sing.slash
Width: 442
VWidth: 1197
GlyphClass: 2
Flags: HMW
LayerCount: 2
Fore
SplineSet
50 -14 m 1
 290 720 l 1
 392 720 l 1
 151 -14 l 1
 50 -14 l 1
EndSplineSet
Colour: ffda6b
EndChar

StartChar: _.sing.tajob
Encoding: 65626 -1 90
GlifName: _.sing.tajob
Width: 255
VWidth: 1197
GlyphClass: 2
Flags: HMW
LayerCount: 2
Fore
SplineSet
50 81 m 1
 128 159 l 1
 205 81 l 1
 128 5 l 1
 50 81 l 1
77 756 m 1
 177 756 l 1
 161 220 l 1
 94 220 l 1
 77 756 l 1
EndSplineSet
Colour: ffda6b
EndChar

StartChar: _.sing.soal
Encoding: 65627 -1 91
GlifName: _.sing.soal
Width: 460
VWidth: 1304
GlyphClass: 2
Flags: HMW
LayerCount: 2
Fore
SplineSet
229 759 m 0
 294 759 340 740 368 701 c 0
 396 662 410 607 410 535 c 2
 410 503 l 1
 333 503 l 1
 333 535 l 2
 333 630 298 677 229 677 c 0
 190 677 160 657 139 617 c 0
 133 603 130 589 130 575 c 0
 130 548 142 519 166 487 c 0
 171 480 178 472 187 460 c 0
 196 448 204 436 212 426 c 0
 220 416 227 406 232 396 c 0
 256 351 268 304 268 255 c 2
 268 215 l 1
 202 215 l 1
 202 242 l 2
 202 300 177 356 127 410 c 0
 123 415 116 424 108 434 c 0
 100 444 94 452 90 457 c 0
 63 495 50 533 50 570 c 2
 50 579 l 2
 50 626 66 667 98 702 c 0
 129 740 173 759 229 759 c 0
157 77 m 1
 235 155 l 1
 312 77 l 1
 235 -0 l 1
 157 77 l 1
EndSplineSet
Colour: ffda6b
EndChar

StartChar: _.sing.beezafeh
Encoding: 65628 -1 92
GlifName: _.sing.beezafeh
Width: 494
VWidth: 1352
GlyphClass: 2
Flags: HMW
LayerCount: 2
Fore
SplineSet
50 263 m 1
 50 335 l 1
 211 335 l 1
 211 495 l 1
 283 495 l 1
 283 335 l 1
 444 335 l 1
 444 263 l 1
 283 263 l 1
 283 103 l 1
 211 103 l 1
 211 263 l 1
 50 263 l 1
EndSplineSet
Colour: ffda6b
EndChar

StartChar: _.sing.menha
Encoding: 65629 -1 93
GlifName: _.sing.menha
Width: 500
VWidth: 0
GlyphClass: 2
Flags: HMW
LayerCount: 2
Fore
SplineSet
50 200 m 1
 50 300 l 1
 450 300 l 1
 450 200 l 1
 50 200 l 1
EndSplineSet
Colour: ffda6b
EndChar

StartChar: _.sing.virgul
Encoding: 65631 -1 95
GlifName: _.sing.virgul
Width: 258
VWidth: 1197
GlyphClass: 2
Flags: HMW
LayerCount: 2
Fore
SplineSet
130 103 m 1
 127 106 120 112 109 122 c 0
 98 132 90 141 86 146 c 0
 82 151 75 159 68 169 c 0
 61 179 57 189 54 200 c 0
 51 211 50 223 50 236 c 0
 51 264 61 294 80 326 c 0
 96 355 118 383 147 410 c 1
 195 362 l 1
 192 360 186 353 176 341 c 0
 149 314 136 290 136 269 c 0
 136 262 138 256 141 250 c 0
 144 244 148 238 152 234 c 0
 156 230 160 226 167 220 c 0
 174 214 178 210 180 208 c 0
 183 205 187 201 194 195 c 0
 201 189 205 185 208 182 c 1
 130 103 l 1
EndSplineSet
Colour: ffda6b
EndChar

StartChar: _.sing.dot_virgul
Encoding: 65632 -1 96
GlifName: _.sing.dot_virgul
Width: 256
VWidth: 1304
GlyphClass: 2
Flags: HMW
LayerCount: 2
Fore
SplineSet
129 210 m 1
 126 213 119 220 108 230 c 0
 97 240 90 247 86 252 c 0
 82 257 75 265 68 275 c 0
 61 285 57 295 54 306 c 0
 51 317 50 330 50 343 c 0
 52 400 84 458 147 517 c 1
 194 469 l 1
 167 442 149 419 142 402 c 0
 138 395 136 388 136 380 c 0
 134 366 139 353 152 340 c 0
 165 329 183 312 206 289 c 1
 129 210 l 1
51 66 m 1
 129 144 l 1
 206 66 l 1
 129 -11 l 1
 51 66 l 1
EndSplineSet
Colour: ffda6b
EndChar

StartChar: _.sing.2noqte
Encoding: 65633 -1 97
GlifName: _.sing.2noqte
Width: 255
VWidth: 1352
GlyphClass: 2
Flags: HMW
LayerCount: 2
Fore
SplineSet
50 106 m 1
 128 183 l 1
 205 106 l 1
 128 29 l 1
 50 106 l 1
50 327 m 1
 128 406 l 1
 205 327 l 1
 128 250 l 1
 50 327 l 1
EndSplineSet
Colour: ffda6b
EndChar

StartChar: _.sing.noqte
Encoding: 65634 -1 98
GlifName: _.sing.noqte
Width: 254
VWidth: 1352
GlyphClass: 2
Flags: HMW
LayerCount: 2
Fore
SplineSet
50 136 m 1
 128 214 l 1
 204 136 l 1
 128 59 l 1
 50 136 l 1
EndSplineSet
Colour: ffda6b
EndChar

StartChar: _.sing.gheiomeh.right
Encoding: 65635 -1 99
GlifName: _.sing.gheiomeh.right
Width: 425
VWidth: 1352
GlyphClass: 2
Flags: HMW
LayerCount: 2
Fore
SplineSet
172 -48 m 1
 91 49 50 145 50 241 c 0
 50 291 61 340 82 389 c 0
 104 439 134 486 172 529 c 1
 226 484 l 1
 163 412 132 331 132 241 c 0
 132 152 163 71 226 -1 c 1
 172 -48 l 1
326 -40 m 1
 289 5 262 49 242 92 c 0
 222 135 212 185 212 241 c 0
 212 297 222 347 242 390 c 0
 262 433 290 477 326 521 c 1
 375 480 l 1
 346 444 323 407 308 370 c 0
 293 333 286 290 286 241 c 0
 286 152 316 72 375 2 c 1
 326 -40 l 1
EndSplineSet
Colour: ffda6b
EndChar

StartChar: _.sing.gheiomeh.left
Encoding: 65636 -1 100
GlifName: _.sing.gheiomeh.left
Width: 426
VWidth: 1352
GlyphClass: 2
Flags: HMW
LayerCount: 2
Fore
SplineSet
139 241 m 0
 139 290 131 333 116 370 c 0
 101 407 79 444 50 480 c 1
 99 521 l 1
 135 478 163 433 184 385 c 0
 204 339 214 291 214 241 c 0
 214 186 204 136 184 92 c 0
 164 48 136 5 99 -40 c 1
 50 2 l 1
 109 72 139 152 139 241 c 0
199 -3 m 1
 262 72 294 154 294 241 c 0
 294 282 286 323 270 364 c 0
 254 408 230 448 199 484 c 1
 253 529 l 1
 291 486 321 439 343 389 c 0
 365 341 376 292 376 241 c 0
 376 191 365 141 343 92 c 0
 322 45 292 -1 253 -48 c 1
 199 -3 l 1
EndSplineSet
Colour: ffda6b
EndChar

StartChar: _.sing.parantez.right
Encoding: 65637 -1 101
GlifName: _.sing.parantez.right
Width: 309
VWidth: 1352
GlyphClass: 2
Flags: HMW
LayerCount: 2
Fore
SplineSet
259 665 m 1
 220 608 189 551 167 494 c 0
 145 437 134 372 134 299 c 0
 134 172 176 51 259 -65 c 1
 201 -106 l 1
 138 -19 92 77 65 183 c 0
 55 221 50 260 50 299 c 0
 50 364 67 440 102 525 c 0
 130 590 163 650 201 705 c 1
 259 665 l 1
EndSplineSet
Colour: ffda6b
EndChar

StartChar: _.sing.parantez.left
Encoding: 65638 -1 102
GlifName: _.sing.parantez.left
Width: 309
VWidth: 1352
GlyphClass: 2
Flags: HMW
LayerCount: 2
Fore
SplineSet
176 299 m 0
 176 372 164 437 142 494 c 0
 120 551 89 608 50 665 c 1
 108 705 l 2
 109 704 116 694 129 673 c 0
 142 652 153 636 160 624 c 0
 200 553 228 483 245 416 c 0
 254 379 259 340 259 299 c 0
 259 230 242 155 208 74 c 0
 183 15 149 -45 108 -106 c 1
 50 -65 l 1
 111 20 150 108 167 199 c 0
 173 231 176 264 176 299 c 0
EndSplineSet
Colour: ffda6b
EndChar

StartChar: _.sing.koroshe.right
Encoding: 65641 -1 105
GlifName: _.sing.koroshe.right
Width: 276
VWidth: 1197
GlyphClass: 2
Flags: HMW
LayerCount: 2
Fore
SplineSet
50 -57 m 1
 50 795 l 1
 226 795 l 1
 226 725 l 1
 120 725 l 1
 120 13 l 1
 226 13 l 1
 226 -57 l 1
 50 -57 l 1
EndSplineSet
Colour: ffda6b
EndChar

StartChar: _.sing.koroshe.left
Encoding: 65642 -1 106
GlifName: _.sing.koroshe.left
Width: 276
VWidth: 1197
GlyphClass: 2
Flags: HMW
LayerCount: 2
Fore
SplineSet
50 13 m 1
 156 13 l 1
 156 725 l 1
 50 725 l 1
 50 795 l 1
 226 795 l 1
 226 -57 l 1
 50 -57 l 1
 50 13 l 1
EndSplineSet
Colour: ffda6b
EndChar

StartChar: _.sing.akolad.right
Encoding: 65643 -1 107
GlifName: _.sing.akolad.right
Width: 327
VWidth: 1197
GlyphClass: 2
Flags: HMW
LayerCount: 2
Fore
SplineSet
245 -125 m 2
 206 -125 177 -115 160 -96 c 0
 143 -77 133 -48 131 -9 c 0
 131 -2 130 10 130 26 c 0
 130 42 130 54 130 63 c 2
 130 132 l 1
 126 221 99 266 50 266 c 1
 50 336 l 1
 71 336 88 343 100 358 c 0
 112 373 120 390 123 407 c 0
 126 424 129 446 130 471 c 2
 130 540 l 2
 130 549 130 561 130 577 c 0
 130 593 131 605 131 612 c 0
 133 651 143 680 160 699 c 0
 177 718 206 727 245 727 c 2
 277 727 l 1
 277 657 l 1
 263 657 l 2
 240 657 223 651 213 640 c 0
 203 629 198 611 198 587 c 0
 197 566 196 546 196 528 c 0
 196 504 196 485 196 470 c 0
 196 455 194 436 191 415 c 0
 188 394 185 377 180 364 c 0
 175 351 168 338 159 326 c 0
 150 314 138 306 125 301 c 1
 142 295 155 285 165 270 c 0
 175 255 182 236 186 212 c 0
 190 188 193 168 194 149 c 0
 195 130 196 106 196 75 c 0
 196 57 197 37 198 16 c 0
 198 -8 203 -26 213 -37 c 0
 223 -48 240 -54 263 -54 c 2
 277 -54 l 1
 277 -125 l 1
 245 -125 l 2
EndSplineSet
Colour: ffda6b
EndChar

StartChar: _.sing.akolad.left
Encoding: 65644 -1 108
GlifName: _.sing.akolad.left
Width: 327
VWidth: 1197
GlyphClass: 2
Flags: HMW
LayerCount: 2
Fore
SplineSet
194 -9 m 0
 194 -86 157 -125 82 -125 c 2
 50 -125 l 1
 50 -54 l 1
 62 -54 l 2
 86 -54 103 -49 112 -38 c 0
 121 -27 127 -9 129 16 c 0
 129 21 130 30 130 43 c 0
 130 56 130 67 130 75 c 0
 130 100 130 120 130 134 c 0
 130 148 132 166 135 188 c 0
 138 210 141 226 146 239 c 0
 151 252 158 264 167 276 c 0
 176 288 188 296 201 301 c 1
 188 306 176 314 167 326 c 0
 158 338 151 350 146 363 c 0
 141 376 138 392 135 414 c 0
 132 436 130 454 130 468 c 0
 130 482 130 503 130 528 c 0
 130 536 130 547 130 560 c 0
 130 573 129 582 129 587 c 0
 127 612 121 630 112 641 c 0
 103 652 86 657 62 657 c 2
 50 657 l 1
 50 727 l 1
 82 727 l 2
 157 727 194 689 194 612 c 0
 195 597 195 573 195 540 c 0
 195 464 200 413 210 387 c 0
 223 353 245 336 277 336 c 1
 277 266 l 1
 240 266 216 243 205 197 c 0
 199 173 196 151 196 130 c 0
 195 115 195 92 195 63 c 0
 195 30 195 6 194 -9 c 0
EndSplineSet
Colour: ffda6b
EndChar

StartChar: _.mark.maad
Encoding: 65645 -1 109
GlifName: _.mark.maad
Width: 0
VWidth: 1352
GlyphClass: 2
Flags: HMW
LayerCount: 2
Fore
SplineSet
0 26 m 1
 32 92 l 2
 45 123 64 138 89 138 c 0
 95 138 101 137 107 135 c 0
 141 125 179 120 221 120 c 0
 244 120 264 121 282 124 c 0
 292 126 306 130 323 136 c 0
 340 142 352 146 359 148 c 1
 366 74 l 1
 324 59 298 51 288 50 c 0
 261 47 237 45 216 45 c 0
 167 45 124 52 86 65 c 1
 82 57 76 46 68 30 c 0
 60 14 56 4 54 0 c 1
 0 26 l 1
EndSplineSet
Colour: ffda6b
EndChar

StartChar: _.mark.fatheh
Encoding: 65646 -1 110
GlifName: _.mark.fatheh
Width: 0
VWidth: 2310
GlyphClass: 2
Flags: HMW
LayerCount: 2
Fore
SplineSet
0 45 m 1
 256 165 l 1
 278 114 l 1
 23 -5 l 1
 0 45 l 1
EndSplineSet
Colour: ffda6b
EndChar

StartChar: _.mark.kasreh
Encoding: 65647 -1 111
GlifName: _.mark.kasreh
Width: 0
VWidth: 2384
GlyphClass: 2
Flags: HMW
LayerCount: 2
Fore
SplineSet
0 -125 m 1
 256 -6 l 1
 278 -56 l 1
 23 -175 l 1
 0 -125 l 1
EndSplineSet
Colour: ffda6b
EndChar

StartChar: _.mark.zameh
Encoding: 65648 -1 112
GlifName: _.mark.zameh
Width: 0
VWidth: 2277
GlyphClass: 2
Flags: HMW
LayerCount: 2
Fore
SplineSet
203 280 m 1
 247 275 272 247 279 194 c 1
 279 139 250 99 193 74 c 2
 23 -5 l 1
 0 44 l 1
 177 127 l 2
 192 134 204 142 212 151 c 0
 220 160 225 172 225 188 c 0
 225 196 222 203 216 210 c 0
 210 217 203 221 195 221 c 0
 185 221 176 218 169 212 c 0
 162 206 158 197 158 188 c 0
 158 183 159 179 160 175 c 0
 161 171 161 168 162 166 c 0
 163 164 164 160 167 156 c 0
 170 152 171 150 172 149 c 0
 173 148 174 145 178 141 c 0
 182 137 184 135 185 134 c 2
 208 111 l 1
 167 82 l 1
 165 85 159 92 149 103 c 0
 139 114 133 123 130 128 c 0
 127 133 122 141 118 152 c 0
 114 163 112 174 112 186 c 0
 112 213 121 236 138 254 c 0
 155 272 176 280 203 280 c 1
EndSplineSet
Colour: ffda6b
EndChar

StartChar: _.mark.tanvin_fatheh
Encoding: 65649 -1 113
GlifName: _.mark.tanvin_fatheh
Width: 0
VWidth: 2280
GlyphClass: 2
Flags: HMW
LayerCount: 2
Fore
SplineSet
0 49 m 1
 256 168 l 1
 278 118 l 1
 23 -0 l 1
 0 49 l 1
0 170 m 1
 256 289 l 1
 278 240 l 1
 23 120 l 1
 0 170 l 1
EndSplineSet
Colour: ffda6b
EndChar

StartChar: _.mark.tanvin_kasreh
Encoding: 65650 -1 114
GlifName: _.mark.tanvin_kasreh
Width: 0
VWidth: 2413
GlyphClass: 2
Flags: HMW
LayerCount: 2
Fore
SplineSet
0 -120 m 1
 256 -1 l 1
 279 -51 l 1
 23 -170 l 1
 0 -120 l 1
0 -240 m 1
 256 -122 l 1
 279 -171 l 1
 23 -291 l 1
 0 -240 l 1
EndSplineSet
Colour: ffda6b
EndChar

StartChar: _.mark.tanvin_zameh
Encoding: 65651 -1 115
GlifName: _.mark.tanvin_zameh
Width: 0
VWidth: 2273
GlyphClass: 2
Flags: HMW
LayerCount: 2
Fore
SplineSet
220 288 m 0
 268 288 297 243 297 197 c 0
 297 174 291 152 276 132 c 0
 240 82 102 29 42 2 c 1
 18 52 l 1
 68 74 l 1
 70 84 72 94 72 104 c 0
 72 141 39 120 25 111 c 1
 0 151 l 1
 34 171 l 2
 43 176 52 178 61 178 c 0
 87 178 109 155 109 120 c 0
 109 112 108 102 106 92 c 1
 160 117 l 1
 155 125 l 1
 138 144 130 168 130 192 c 0
 130 241 164 288 220 288 c 0
175 194 m 0
 175 185 178 173 187 161 c 0
 198 147 190 153 204 139 c 1
 200 136 l 1
 226 149 244 165 244 194 c 0
 244 218 228 228 212 228 c 0
 194 228 175 216 175 194 c 0
EndSplineSet
Colour: ffda6b
EndChar

StartChar: _.mark.tashdid
Encoding: 65652 -1 116
GlifName: _.mark.tashdid
Width: 0
VWidth: 1833
GlyphClass: 2
Flags: HMW
LayerCount: 2
Fore
SplineSet
0 102 m 0
 0 110 0 119 1 129 c 0
 1 143 4 154 5 168 c 1
 51 164 l 1
 48 148 46 133 46 120 c 0
 46 74 64 52 84 52 c 0
 110 52 141 90 141 158 c 0
 141 161 140 163 140 166 c 1
 182 166 l 1
 182 159 182 153 182 147 c 0
 182 87 201 57 220 57 c 0
 240 57 261 89 261 155 c 0
 261 158 261 161 261 164 c 1
 307 168 l 1
 307 160 307 153 307 146 c 0
 307 46 262 1 218 1 c 0
 194 1 170 14 154 40 c 1
 138 17 105 -1 73 -1 c 0
 35 -1 0 26 0 102 c 0
EndSplineSet
Colour: ffda6b
EndChar

StartChar: _.mark.hamze
Encoding: 65653 -1 117
GlifName: _.mark.hamze
Width: 0
VWidth: 1841
GlyphClass: 2
Flags: HMW
LayerCount: 2
Fore
SplineSet
138 291 m 0
 119 291 103 286 90 276 c 0
 77 266 71 252 71 233 c 0
 71 213 78 196 93 184 c 0
 108 172 123 165 138 162 c 1
 256 218 l 1
 279 167 l 1
 23 49 l 1
 0 98 l 1
 78 134 l 1
 40 152 21 183 21 227 c 0
 21 258 31 286 52 310 c 0
 73 334 102 345 137 345 c 0
 160 345 186 339 213 326 c 1
 203 280 l 1
 176 287 154 291 138 291 c 0
EndSplineSet
Colour: ffda6b
EndChar

StartChar: _.mark.sakon
Encoding: 65654 -1 118
GlifName: _.mark.sakon
Width: 0
VWidth: 2099
GlyphClass: 2
Flags: HMW
LayerCount: 2
Fore
SplineSet
164 145 m 0
 164 121 156 100 141 84 c 0
 126 68 106 60 82 60 c 0
 45 60 20 77 7 112 c 0
 2 121 0 132 0 145 c 0
 0 180 17 206 50 223 c 0
 60 227 71 229 82 229 c 0
 106 229 126 221 141 205 c 0
 156 189 164 169 164 145 c 0
80 181 m 0
 70 181 61 177 54 170 c 0
 47 163 43 154 43 144 c 0
 43 133 47 125 54 118 c 0
 61 111 69 107 80 107 c 0
 91 107 100 111 107 118 c 0
 114 125 118 133 118 144 c 0
 118 154 114 163 107 170 c 0
 100 177 91 181 80 181 c 0
EndSplineSet
Colour: ffda6b
EndChar

StartChar: _.mark.alef
Encoding: 65655 -1 119
GlifName: _.mark.alef
Width: 0
VWidth: 2091
GlyphClass: 2
Flags: HMW
LayerCount: 2
Fore
SplineSet
0 245 m 1
 52 263 l 1
 67 222 77 186 82 152 c 0
 87 118 89 76 89 26 c 1
 42 26 l 1
 42 94 28 167 0 245 c 1
EndSplineSet
Colour: ffda6b
EndChar

StartChar: _.sing.momaiez
Encoding: 65656 -1 120
GlifName: _.sing.momaiez
Width: 402
VWidth: 1352
GlyphClass: 2
Flags: HMW
LayerCount: 2
Fore
SplineSet
50 -189 m 1
 265 410 l 1
 352 400 l 1
 141 -198 l 1
 134 -200 127 -201 120 -201 c 0
 104 -201 81 -197 50 -189 c 1
EndSplineSet
Colour: ffda6b
EndChar

StartChar: _.sing.hezare
Encoding: 65657 -1 121
GlifName: _.sing.hezare
Width: 222
VWidth: 1197
GlyphClass: 2
Flags: HMW
LayerCount: 2
Fore
SplineSet
50 900 m 1
 172 900 l 1
 130 700 l 1
 91 700 l 1
 50 900 l 1
EndSplineSet
Colour: ffda6b
EndChar

StartChar: _.sing.darsad
Encoding: 65658 -1 122
GlifName: _.sing.darsad
Width: 620
VWidth: 1197
GlyphClass: 2
Flags: HMW
LayerCount: 2
Fore
SplineSet
50 88 m 1
 471 736 l 1
 570 709 l 1
 147 63 l 1
 50 88 l 1
94 661 m 1
 111 695 131 729 155 763 c 1
 230 722 267 693 267 677 c 0
 267 662 250 629 216 580 c 1
 146 629 105 656 94 661 c 1
371 132 m 1
 388 164 409 198 434 234 c 1
 508 191 545 160 545 139 c 0
 545 132 528 103 493 52 c 1
 420 101 379 128 371 132 c 1
EndSplineSet
Colour: ffda6b
EndChar

StartChar: _.sing.mosavi
Encoding: 65659 -1 123
GlifName: _.sing.mosavi
Width: 488
VWidth: 1197
GlyphClass: 2
Flags: HMW
LayerCount: 2
Fore
SplineSet
50 124 m 1
 50 194 l 1
 438 194 l 1
 438 124 l 1
 50 124 l 1
50 300 m 1
 50 370 l 1
 438 370 l 1
 438 300 l 1
 50 300 l 1
EndSplineSet
Colour: ffda6b
EndChar

StartChar: _.beh_k.init
Encoding: 65661 -1 125
GlifName: _.beh_k.init
Width: 329
VWidth: 1197
GlyphClass: 2
UnlinkRmOvrlpSave: 1
Flags: HMW
LayerCount: 2
Fore
SplineSet
-50 49 m 0
 -50 76 -27 100 -1 100 c 2
 24 100 l 2
 98 100 149 116 186 136 c 1
 186 140 187 145 187 150 c 0
 187 196 165 261 143 335 c 1
 220 400 l 1
 248 316 265 245 265 187 c 0
 265 117 240 66 179 34 c 0
 147 13 101 0 25 -0 c 2
 -1 -0 l 2
 -25 0 -50 24 -50 49 c 0
EndSplineSet
Colour: ffda6b
EndChar

StartChar: _.beh_k.medi
Encoding: 65662 -1 126
GlifName: _.beh_k.medi
Width: 418
VWidth: 1304
GlyphClass: 2
UnlinkRmOvrlpSave: 1
Flags: HMW
LayerCount: 2
Fore
SplineSet
218 68 m 1
 175 21 128 0 25 -0 c 2
 -1 -0 l 2
 -25 0 -50 24 -50 49 c 0
 -50 76 -27 100 -1 100 c 2
 25 100 l 2
 80 100 135 109 184 135 c 1
 184 315 l 1
 264 315 l 1
 264 160 l 2
 264 142 270 125 296 119 c 0
 328 109 369 100 418 100 c 1
 418 -0 l 1
 350 0 306 10 274 27 c 0
 251 38 232 51 218 68 c 1
EndSplineSet
Colour: ffda6b
EndChar

StartChar: _.sing.3noqte
Encoding: 65663 -1 127
GlifName: _.sing.3noqte
Width: 767
VWidth: 1304
GlyphClass: 2
Flags: HMW
LayerCount: 2
Fore
SplineSet
50 136 m 1
 128 214 l 1
 205 136 l 1
 128 59 l 1
 50 136 l 1
300 136 m 1
 377 214 l 1
 454 136 l 1
 377 59 l 1
 300 136 l 1
562 136 m 1
 640 214 l 1
 717 136 l 1
 640 59 l 1
 562 136 l 1
EndSplineSet
Colour: ffda6b
EndChar

StartChar: s.khat_tire
Encoding: 8208 8208 138
GlifName: s.khat_tire
Width: 504
VWidth: 0
GlyphClass: 2
Flags: HMW
LayerCount: 2
Fore
SplineSet
55 229 m 1
 55 307 l 1
 451 307 l 1
 451 229 l 1
 55 229 l 1
EndSplineSet
Colour: d7d7d7
EndChar

StartChar: s.zwj
Encoding: 8205 8205 174
GlifName: s.zwj
Width: 0
VWidth: 1331
GlyphClass: 2
Flags: HMW
LayerCount: 2
Fore
SplineSet
25 -327 m 1
 -25 -327 l 1
 -25 579 l 1
 -111 491 l 1
 -141 521 l 1
 -30 631 l 1
 -141 740 l 1
 -111 772 l 1
 0 660 l 1
 111 772 l 1
 141 740 l 1
 30 631 l 1
 141 521 l 1
 111 491 l 1
 25 579 l 1
 25 -327 l 1
EndSplineSet
Colour: d7d7d7
EndChar

StartChar: s.tagsim
Encoding: 247 247 182
GlifName: s.tagsim
Width: 564
VWidth: 1278
GlyphClass: 2
Flags: HMW
LayerCount: 2
Fore
SplineSet
59 352 m 1
 59 429 l 1
 506 429 l 1
 506 352 l 1
 59 352 l 1
234 204 m 1
 234 299 l 1
 330 299 l 1
 330 204 l 1
 234 204 l 1
234 482 m 1
 234 577 l 1
 330 577 l 1
 330 482 l 1
 234 482 l 1
EndSplineSet
Colour: d7d7d7
EndChar

StartChar: s.zwnj
Encoding: 8204 8204 215
GlifName: s.zwnj
Width: 0
VWidth: 1331
GlyphClass: 2
Flags: HMW
LayerCount: 2
Fore
SplineSet
-25 -308 m 1
 -25 710 l 1
 25 710 l 1
 25 -308 l 1
 -25 -308 l 1
EndSplineSet
Colour: d7d7d7
EndChar

StartChar: s.dotted_circle
Encoding: 9676 9676 220
GlifName: s.dotted_circle
Width: 576
VWidth: 1890
GlyphClass: 2
Flags: HMW
LayerCount: 2
Fore
SplineSet
60 181 m 0
 60 196 67 203 82 203 c 0
 97 203 104 196 104 182 c 2
 104 180 l 2
 104 166 97 159 82 159 c 0
 67 159 60 166 60 181 c 0
76 103 m 0
 76 118 83 126 98 126 c 0
 113 126 120 118 120 103 c 0
 120 88 113 80 98 80 c 0
 83 80 76 88 76 103 c 0
76 259 m 0
 76 274 83 282 98 282 c 0
 113 282 120 274 120 259 c 0
 120 244 113 236 99 236 c 0
 84 236 76 244 76 259 c 0
120 34 m 0
 120 49 127 56 142 57 c 0
 157 56 164 49 165 34 c 0
 164 19 157 12 142 12 c 0
 127 12 120 19 120 34 c 0
120 326 m 0
 120 341 127 348 142 349 c 0
 157 348 164 341 165 326 c 0
 164 311 157 304 142 304 c 0
 127 304 120 311 120 326 c 0
187 -8 m 0
 187 7 195 14 210 14 c 0
 225 14 233 7 233 -8 c 0
 233 -23 225 -30 210 -30 c 0
 195 -30 187 -23 187 -8 c 0
187 372 m 0
 187 387 195 394 210 394 c 0
 225 394 233 387 233 372 c 0
 233 357 225 350 210 350 c 0
 195 350 187 357 187 372 c 0
310 -26 m 0
 310 -41 303 -48 288 -48 c 0
 273 -48 266 -41 265 -26 c 0
 266 -11 273 -4 288 -3 c 0
 303 -4 310 -11 310 -26 c 0
288 410 m 0
 303 410 310 403 310 388 c 0
 310 373 303 366 288 365 c 0
 273 366 266 373 265 388 c 0
 266 403 273 410 288 410 c 0
344 -8 m 0
 344 7 352 14 367 14 c 0
 382 14 390 7 390 -8 c 0
 390 -22 382 -30 367 -31 c 0
 352 -30 344 -22 344 -8 c 0
344 372 m 0
 344 387 352 394 367 394 c 0
 382 394 390 387 390 372 c 0
 390 358 382 350 367 349 c 0
 352 350 344 358 344 372 c 0
412 34 m 0
 412 49 419 56 434 57 c 0
 449 56 456 49 456 34 c 0
 456 19 449 12 434 12 c 0
 419 12 412 19 412 34 c 0
412 326 m 0
 412 341 419 348 434 349 c 0
 449 348 456 341 456 326 c 0
 456 311 449 304 434 304 c 0
 419 304 412 311 412 326 c 0
456 103 m 0
 456 118 463 126 478 126 c 0
 492 126 500 118 501 103 c 0
 500 88 492 80 478 80 c 0
 463 80 456 88 456 103 c 0
456 259 m 0
 456 274 463 282 478 282 c 0
 492 282 500 274 501 259 c 0
 500 244 492 236 478 236 c 0
 463 236 456 244 456 259 c 0
472 181 m 0
 472 196 479 203 494 203 c 0
 509 203 516 196 517 182 c 2
 517 180 l 2
 516 166 509 159 494 159 c 0
 479 159 472 166 472 181 c 0
EndSplineSet
Colour: d7d7d7
EndChar

StartChar: s.figure_dash
Encoding: 8210 8210 224
GlifName: s.figure_dash
Width: 600
VWidth: 0
GlyphClass: 2
Flags: HMW
LayerCount: 2
Fore
SplineSet
55 229 m 1
 55 307 l 1
 547 307 l 1
 547 229 l 1
 55 229 l 1
EndSplineSet
Colour: d7d7d7
EndChar

StartChar: s.em_dash
Encoding: 8212 8212 263
GlifName: s.em_dash
Width: 1200
VWidth: 1175
GlyphClass: 2
Flags: HMW
LayerCount: 2
Fore
SplineSet
55 229 m 1
 55 307 l 1
 1147 307 l 1
 1147 229 l 1
 55 229 l 1
EndSplineSet
Colour: d7d7d7
EndChar

StartChar: s.bullet
Encoding: 8226 8226 278
GlifName: s.bullet
Width: 602
VWidth: 1331
GlyphClass: 2
Flags: HMW
LayerCount: 2
Fore
SplineSet
532 432 m 0
 532 369 509 315 464 270 c 0
 419 225 365 202 302 202 c 0
 245 202 194 223 147 266 c 0
 100 309 77 357 77 410 c 0
 77 483 99 542 142 585 c 0
 185 628 236 650 295 650 c 0
 368 650 426 630 468 591 c 0
 510 552 532 499 532 432 c 0
EndSplineSet
Colour: d7d7d7
EndChar

StartChar: s.en_dash
Encoding: 8211 8211 310
GlifName: s.en_dash
Width: 600
VWidth: 1175
GlyphClass: 2
Flags: HMW
LayerCount: 2
Fore
SplineSet
55 229 m 1
 55 307 l 1
 547 307 l 1
 547 229 l 1
 55 229 l 1
EndSplineSet
Colour: d7d7d7
EndChar

StartChar: s.horizontal_bar
Encoding: 8213 8213 316
GlifName: s.horizontal_bar
Width: 2400
VWidth: 1175
GlyphClass: 2
Flags: HMW
LayerCount: 2
Fore
SplineSet
55 229 m 1
 55 307 l 1
 2347 307 l 1
 2347 229 l 1
 55 229 l 1
EndSplineSet
Colour: d7d7d7
EndChar

StartChar: s.lrm
Encoding: 8206 8206 317
GlifName: s.lrm
Width: 0
VWidth: 1331
GlyphClass: 2
Flags: HMW
LayerCount: 2
Fore
SplineSet
-25 -308 m 1
 -25 676 l 1
 196 676 l 1
 106 759 l 1
 138 790 l 1
 280 651 l 1
 138 510 l 1
 106 544 l 1
 196 628 l 1
 22 628 l 1
 22 -308 l 1
 -25 -308 l 1
EndSplineSet
Colour: d7d7d7
EndChar

StartChar: s.rlm
Encoding: 8207 8207 346
GlifName: s.rlm
Width: 0
VWidth: 1331
GlyphClass: 2
Flags: HMW
LayerCount: 2
Fore
SplineSet
22 676 m 1
 22 -308 l 1
 -25 -308 l 1
 -25 628 l 1
 -196 628 l 1
 -108 544 l 1
 -138 510 l 1
 -280 651 l 1
 -138 790 l 1
 -108 759 l 1
 -196 676 l 1
 22 676 l 1
EndSplineSet
Colour: d7d7d7
EndChar

StartChar: _.mark.he_yeh
Encoding: 65664 -1 400
GlifName: _.mark.he_yeh
Width: 209
VWidth: 1304
GlyphClass: 1
UnlinkRmOvrlpSave: 1
Flags: HMW
LayerCount: 2
Fore
SplineSet
192 89 m 2
 192 90 l 2
 192 95 184 100 167 104 c 0
 153 107 144 109 141 109 c 0
 122 114 113 124 113 141 c 0
 113 176 135 207 178 234 c 0
 191 241 202 245 210 245 c 1
 210 200 l 1
 186 200 165 187 147 162 c 1
 145 156 l 2
 145 152 157 146 180 138 c 0
 205 130 218 124 221 120 c 0
 224 115 226 106 226 92 c 0
 226 77 219 62 206 49 c 0
 169 12 101 -6 0 -6 c 1
 17 42 l 1
 96 42 150 53 178 75 c 0
 187 82 192 87 192 89 c 2
EndSplineSet
EndChar

StartChar: uni0000
Encoding: 0 0 401
GlifName: uni0000
Width: 497
VWidth: 0
GlyphClass: 2
Flags: HMW
LayerCount: 2
Fore
SplineSet
59 -251 m 1
 59 709 l 1
 438 709 l 1
 438 -251 l 1
 59 -251 l 1
105 -181 m 1
 387 -181 l 1
 387 648 l 1
 105 648 l 1
 105 -181 l 1
EndSplineSet
EndChar

StartChar: _.ghaf.medi
Encoding: 65665 -1 402
GlifName: _.ghaf.medi
Width: 537
VWidth: 0
GlyphClass: 2
Flags: HMW
LayerCount: 2
Fore
SplineSet
-50 50 m 0
 -50 76 -25 100 0 100 c 0
 28 100 57 100 85 100 c 0
 145 100 240 126 255 154 c 0
 256 156 257 159 257 164 c 0
 257 214 181 390 15 500 c 1
 52 620 l 1
 486 800 l 1
 479 692 l 1
 112 546 l 1
 204 465 262 385 293 315 c 1
 341 213 389 100 511 100 c 2
 537 100 l 1
 537 -0 l 1
 511 -0 l 2
 397 0 342 44 300 113 c 1
 266 27 189 0 77 -0 c 0
 52 0 25 0 0 -0 c 0
 -25 0 -50 24 -50 50 c 0
66 682 m 1
 71 742 l 1
 440 890 l 1
 440 833 l 1
 66 682 l 1
EndSplineSet
Colour: ffda6b
EndChar

StartChar: _.ghaf.init
Encoding: 65666 -1 403
GlifName: _.ghaf.init
Width: 550
VWidth: 0
GlyphClass: 2
Flags: HMW
LayerCount: 2
Fore
SplineSet
-50 50 m 0
 -50 76 -25 100 0 100 c 0
 28 100 57 100 85 100 c 0
 145 100 240 126 255 154 c 0
 256 156 257 159 257 164 c 0
 257 214 181 390 15 500 c 1
 52 620 l 1
 486 800 l 1
 479 692 l 1
 112 546 l 1
 257 418 319 293 319 205 c 0
 319 196 318 188 317 180 c 0
 297 40 215 0 77 -0 c 0
 52 0 25 0 0 -0 c 0
 -25 0 -50 24 -50 50 c 0
66 682 m 1
 71 742 l 1
 440 890 l 1
 440 833 l 1
 66 682 l 1
EndSplineSet
Colour: ffda6b
EndChar

StartChar: l.allah.ref1
Encoding: 65667 -1 404
Width: 1300
VWidth: 0
Flags: HM
LayerCount: 2
Fore
SplineSet
460 100 m 0
 524 100 557 132 560 196 c 1
 530 591 l 1
 612 668 l 1
 631 200 l 1
 631 196 l 2
 633 132 666 100 731 100 c 1
 731 0 l 1
 669 0 624 19 596 58 c 1
 567 19 522 0 460 0 c 0
 448 0 437 5 426 16 c 0
 415 27 410 38 410 50 c 0
 411 62 417 73 426 84 c 0
 436 95 447 100 460 100 c 0
EndSplineSet
Comment: "l.allah had both contours and references, so the contours were moved into this glyph, and a reference to it was added in the original."
Colour: ff8080
EndChar

StartChar: _.la.isol.fa
Encoding: 65668 -1 405
Width: 562
VWidth: 0
Flags: HMW
LayerCount: 2
Fore
SplineSet
64 599 m 0
 64 617 77 636 114 678 c 0
 121 680 126 679 128 672 c 2
 290 236 l 2
 291 233 291 230 291 226 c 0
 291 200 266 162 248 157 c 1
 75 559 l 2
 68 576 64 588 64 599 c 0
114 50 m 0
 114 75 137 99 162 100 c 1
 167 100 l 2
 297 100 418 179 434 220 c 1
 392 699 l 2
 392 708 391 715 391 721 c 0
 391 751 400 761 464 801 c 0
 471 801 477 799 477 790 c 2
 498 276 l 1
 497 191 465 110 392 60 c 0
 334 21 253 0 164 -0 c 1
 139 1 114 24 114 50 c 0
EndSplineSet
Colour: ffda6b
EndChar

StartChar: _.la.fina.fa
Encoding: 65669 -1 406
Width: 674
VWidth: 0
Flags: HMW
LayerCount: 2
Fore
SplineSet
64 599 m 0
 64 617 77 636 114 678 c 0
 121 680 126 679 128 672 c 2
 290 236 l 2
 291 233 291 230 291 226 c 0
 291 200 266 162 248 157 c 1
 75 559 l 2
 68 576 64 588 64 599 c 0
114 50 m 0
 114 75 137 99 162 100 c 1
 167 100 l 2
 297 100 418 179 434 220 c 1
 392 699 l 2
 392 708 391 715 391 721 c 0
 391 751 400 761 464 801 c 0
 471 801 477 799 477 790 c 2
 497 277 l 1
 503 182 530 100 674 100 c 1
 674 -0 l 1
 535 0 480 59 458 134 c 1
 414 48 297 0 164 -0 c 1
 139 1 114 24 114 50 c 0
EndSplineSet
Colour: ffda6b
EndChar

StartChar: _.sing.alef_maad
Encoding: 65672 -1 409
Width: 505
VWidth: 1352
Flags: HMW
LayerCount: 2
Fore
SplineSet
50 31 m 1
 67 75 88 105 113 122 c 0
 138 139 166 147 199 147 c 0
 213 147 234 146 262 142 c 0
 290 138 312 136 325 136 c 0
 381 136 422 163 448 216 c 1
 455 166 l 1
 444 119 426 87 401 70 c 0
 376 53 346 44 309 44 c 0
 294 44 270 46 239 50 c 0
 208 54 185 55 171 55 c 0
 122 55 90 37 77 0 c 1
 50 31 l 1
EndSplineSet
Colour: ffda6b
EndChar

StartChar: _.sing.star
Encoding: 65673 -1 410
Width: 503
VWidth: 1197
Flags: HMW
LayerCount: 2
Fore
SplineSet
50 543 m 1
 72 609 l 1
 123 593 l 2
 136 589 154 582 177 572 c 0
 200 562 215 557 221 555 c 1
 220 561 220 570 219 582 c 0
 218 594 218 603 217 609 c 0
 217 615 216 624 216 635 c 0
 216 646 216 655 216 660 c 2
 216 714 l 1
 286 714 l 1
 286 660 l 2
 286 623 284 588 280 555 c 1
 290 558 306 565 329 574 c 0
 352 583 368 590 379 593 c 2
 430 609 l 1
 453 543 l 1
 401 525 l 2
 390 522 373 518 350 512 c 0
 327 506 310 501 299 498 c 1
 305 491 327 464 365 417 c 1
 397 373 l 1
 341 332 l 1
 309 375 l 2
 289 402 270 432 252 463 c 1
 216 408 197 379 194 375 c 2
 162 332 l 1
 105 373 l 1
 136 417 l 2
 145 426 167 453 203 498 c 1
 192 501 175 506 152 512 c 0
 129 518 113 522 102 525 c 2
 50 543 l 1
EndSplineSet
Colour: ffda6b
EndChar

